<svg xmlns="http://www.w3.org/2000/svg" xmlns:xlink="http://www.w3.org/1999/xlink" width="447.031" height="171.616" viewBox="0 0 447.031 171.616"><defs><style>.a{fill:#3a6e47;opacity:0.5;mix-blend-mode:multiply;isolation:isolate;}.b{fill:url(#a);}.c{fill:#241312;}.d{fill:url(#b);}.e{fill:#ad9581;}.f{fill:url(#c);}.g{fill:#492d29;}.h{fill:url(#f);}.i{fill:url(#g);}.j{fill:#9f771f;}.k{fill:#876a22;}.l{fill:#291318;}.m{fill:#371921;}.n{fill:url(#h);}.o{fill:#f4e4d2;}.p{fill:url(#i);}.q{fill:#1b1010;}.r{fill:url(#j);}.s{fill:url(#k);}.t{fill:#f4d83f;}.u{fill:#548cbe;}.v{fill:#7db2e1;}.w{fill:#f8ede2;}.x{fill:#d9c0a7;}.y{fill:#e0b83b;}.z{fill:url(#m);}.aa{fill:url(#n);}.ab{fill:#007195;}.ac{fill:#cd8027;}</style><linearGradient id="a" x1="0.44" y1="0.961" x2="0.577" y2="-0.088" gradientUnits="objectBoundingBox"><stop offset="0.248" stop-color="#1f1212"/><stop offset="0.699" stop-color="#493d3c"/><stop offset="0.793" stop-color="#453938"/><stop offset="0.882" stop-color="#3a2d2d"/><stop offset="0.97" stop-color="#271a1a"/><stop offset="1" stop-color="#1f1212"/></linearGradient><linearGradient id="b" x1="0.595" y1="0.005" x2="0.425" y2="0.891" gradientUnits="objectBoundingBox"><stop offset="0.248" stop-color="#1f1212"/><stop offset="0.492" stop-color="#211615"/><stop offset="0.74" stop-color="#2a2220"/><stop offset="0.822" stop-color="#2f2826"/><stop offset="0.898" stop-color="#2c2422"/><stop offset="0.971" stop-color="#231818"/><stop offset="1" stop-color="#1f1212"/></linearGradient><linearGradient id="c" x1="0.026" y1="0.16" x2="1.021" y2="0.621" gradientUnits="objectBoundingBox"><stop offset="0" stop-color="#7c7268"/><stop offset="1" stop-color="#79604f"/></linearGradient><linearGradient id="f" x1="0.026" y1="0.16" x2="1.021" y2="0.621" xlink:href="#c"/><linearGradient id="g" x1="0.144" y1="0.05" x2="1.027" y2="1.166" gradientUnits="objectBoundingBox"><stop offset="0" stop-color="#9f771f"/><stop offset="1" stop-color="#c19822"/></linearGradient><linearGradient id="h" x1="0.595" y1="0.005" x2="0.425" y2="0.891" gradientUnits="objectBoundingBox"><stop offset="0.248" stop-color="#1f1212"/><stop offset="0.381" stop-color="#231515"/><stop offset="0.516" stop-color="#2f2120"/><stop offset="0.652" stop-color="#433433"/><stop offset="0.788" stop-color="#5f4f4d"/><stop offset="0.822" stop-color="#685755"/><stop offset="0.865" stop-color="#645351"/><stop offset="0.906" stop-color="#584846"/><stop offset="0.946" stop-color="#453635"/><stop offset="0.986" stop-color="#2a1d1c"/><stop offset="1" stop-color="#1f1212"/></linearGradient><linearGradient id="i" x1="0.026" y1="0.16" x2="1.021" y2="0.621" gradientUnits="objectBoundingBox"><stop offset="0" stop-color="#f4e4d2"/><stop offset="1" stop-color="#79604f"/></linearGradient><linearGradient id="j" x1="0.293" y1="0.108" x2="0.808" y2="1.082" xlink:href="#g"/><linearGradient id="k" x1="0.595" y1="0.005" x2="0.425" y2="0.891" xlink:href="#h"/><linearGradient id="m" x1="1.525" y1="1.235" x2="0.932" y2="0.563" gradientUnits="objectBoundingBox"><stop offset="0" stop-color="#c19822"/><stop offset="1" stop-color="#9f771f"/></linearGradient><linearGradient id="n" x1="2.268" y1="2.022" x2="1.379" y2="1.084" xlink:href="#m"/></defs><g transform="translate(-509.37 -412.028)"><ellipse class="a" cx="208.553" cy="10.245" rx="208.553" ry="10.245" transform="translate(524.332 548.191)"/><g transform="translate(731.987 516.926)"><path class="b" d="M861.835,567.611H850.2c-8.514,0-15.416,9.761-15.416,21.8s6.9,21.8,15.416,21.8h11.636c8.515,0,15.417-9.761,15.417-21.8S870.35,567.611,861.835,567.611Z" transform="translate(-834.783 -567.611)"/><path class="c" d="M867.458,567.611c-8.515,0-15.417,9.761-15.417,21.8s6.9,21.8,15.417,21.8,15.416-9.761,15.416-21.8-6.9-21.8-15.416-21.8" transform="translate(-840.405 -567.611)"/><path class="d" d="M870.309,579.987c-5.256,0-9.516,6.025-9.516,13.455s4.26,13.457,9.516,13.457,9.515-6.025,9.515-13.457-4.26-13.455-9.515-13.455" transform="translate(-843.256 -571.643)"/><path class="e" d="M878.458,594.974a17.386,17.386,0,0,0-1.785-7.839,7.749,7.749,0,0,0-5.466-2.445c-5.256,0-9.516,6.024-9.516,13.454a19.016,19.016,0,0,0,.1,1.907c1.318,4.568,4.359,7.883,7.984,8.326C874.638,607.782,878.458,602.011,878.458,594.974Z" transform="translate(-843.549 -573.175)"/><path class="f" d="M871.507,588.669h-1.659c-2.969,0-5.376,3.4-5.376,7.6s2.407,7.6,5.376,7.6h1.659C871.507,600.736,871.507,591.646,871.507,588.669Z" transform="translate(-844.455 -574.471)"/><path class="e" d="M872.309,588.669c-2.97,0-5.377,3.4-5.377,7.6s2.407,7.6,5.377,7.6,5.376-3.4,5.376-7.6-2.407-7.6-5.376-7.6" transform="translate(-845.256 -574.471)"/><path class="g" d="M873.816,595.209c-1.247,0-2.258,1.43-2.258,3.192s1.011,3.193,2.258,3.193,2.257-1.429,2.257-3.193-1.011-3.192-2.257-3.192" transform="translate(-846.763 -576.602)"/></g><g transform="translate(578.798 516.925)"><path class="b" d="M634.628,567.61H622.992c-8.515,0-15.417,9.761-15.417,21.8s6.9,21.8,15.417,21.8h11.636c8.515,0,15.416-9.761,15.416-21.8S643.142,567.61,634.628,567.61Z" transform="translate(-607.575 -567.61)"/><path class="c" d="M640.25,567.61c-8.515,0-15.416,9.761-15.416,21.8s6.9,21.8,15.416,21.8,15.416-9.761,15.416-21.8-6.9-21.8-15.416-21.8" transform="translate(-613.198 -567.61)"/><path class="d" d="M643.1,579.986c-5.256,0-9.515,6.025-9.515,13.455s4.26,13.457,9.515,13.457,9.515-6.025,9.515-13.457-4.26-13.455-9.515-13.455" transform="translate(-616.049 -571.642)"/><path class="e" d="M651.251,594.973a17.4,17.4,0,0,0-1.785-7.839A7.75,7.75,0,0,0,644,584.689c-5.256,0-9.515,6.024-9.515,13.454,0,.648.034,1.284.1,1.907,1.318,4.569,4.36,7.883,7.984,8.326C647.431,607.781,651.251,602.009,651.251,594.973Z" transform="translate(-616.341 -573.174)"/><path class="h" d="M644.3,588.667h-1.659c-2.97,0-5.377,3.4-5.377,7.6s2.407,7.6,5.377,7.6H644.3Z" transform="translate(-617.247 -574.47)"/><path class="e" d="M645.1,588.667c-2.969,0-5.376,3.4-5.376,7.6s2.407,7.6,5.376,7.6,5.376-3.4,5.376-7.6-2.407-7.6-5.376-7.6" transform="translate(-618.049 -574.47)"/><path class="g" d="M646.608,595.208c-1.247,0-2.258,1.429-2.258,3.192s1.011,3.193,2.258,3.193,2.258-1.43,2.258-3.193-1.011-3.192-2.258-3.192" transform="translate(-619.555 -576.601)"/></g><path class="i" d="M996.274,595.063l.005-36.973H959.688v36.973Z" transform="translate(-143.487 -47.583)"/><path class="j" d="M615.689,606.342l23.488,4.164H547.793l-23.487-4.164,51.876-.85Z" transform="translate(-1.651 -63.026)"/><path class="k" d="M1007.936,592.416c2.771,1.883,1.811,8.2,1.121,13.83h-2.805Z" transform="translate(-158.656 -58.766)"/><g transform="translate(807.522 516.925)"><path class="l" d="M973.867,567.61H962.231c-8.514,0-15.416,9.761-15.416,21.8s6.9,21.8,15.416,21.8h11.636c8.515,0,15.417-9.761,15.417-21.8S982.382,567.61,973.867,567.61Z" transform="translate(-946.815 -567.61)"/><path class="m" d="M979.489,567.61c-8.514,0-15.416,9.761-15.416,21.8s6.9,21.8,15.416,21.8,15.417-9.761,15.417-21.8-6.9-21.8-15.417-21.8" transform="translate(-952.437 -567.61)"/><path class="n" d="M982.34,579.987c-5.255,0-9.515,6.024-9.515,13.454s4.26,13.457,9.515,13.457,9.516-6.024,9.516-13.457-4.26-13.454-9.516-13.454" transform="translate(-955.288 -571.642)"/><path class="e" d="M981.511,580.067c-4.867.595-8.686,6.366-8.686,13.4a18.369,18.369,0,0,0,.7,5.078c4.879-4.587,10.893-9.666,14.89-12.916C986.84,582.529,984.354,580.414,981.511,580.067Z" transform="translate(-955.288 -571.668)"/><path class="o" d="M990.49,594.973a17.383,17.383,0,0,0-1.785-7.839,7.75,7.75,0,0,0-5.466-2.445c-5.256,0-9.516,6.025-9.516,13.455a19.031,19.031,0,0,0,.1,1.906c1.317,4.569,4.36,7.883,7.984,8.326C986.67,607.781,990.49,602.01,990.49,594.973Z" transform="translate(-955.581 -573.174)"/><path class="e" d="M987.649,594.276s-6.814,7.422-8.649,9.339c.368.492,1.9,2.673,2.34,3.248a4.644,4.644,0,0,0,3.639,2.008c2.969,0,5.376-3.4,5.376-7.6a9.356,9.356,0,0,0-1.583-5.38C988.381,595.336,987.649,594.276,987.649,594.276Z" transform="translate(-957.3 -576.297)"/><path class="p" d="M983.539,588.668H981.88c-2.969,0-5.376,3.4-5.376,7.6s2.407,7.6,5.376,7.6h1.659Z" transform="translate(-956.487 -574.47)"/><path class="o" d="M984.34,588.668c-2.969,0-5.376,3.4-5.376,7.6s2.407,7.6,5.376,7.6,5.377-3.4,5.377-7.6-2.407-7.6-5.377-7.6" transform="translate(-957.288 -574.47)"/><path class="g" d="M985.847,595.209c-1.247,0-2.257,1.429-2.257,3.192s1.011,3.193,2.257,3.193,2.258-1.429,2.258-3.193-1.011-3.192-2.258-3.192" transform="translate(-958.795 -576.601)"/></g><path class="q" d="M972.187,567.622c-2.1,0-9.352-.005-10.37,0-17.51.1-21.289,36.721-2.875,43.115C953.392,588.709,958.485,569.361,972.187,567.622Z" transform="translate(-139.286 -50.688)"/><path class="r" d="M768.244,595.063l.006-36.973H731.658v36.973Z" transform="translate(-69.2 -47.583)"/><path class="k" d="M779.906,592.539c2.87,1.8,2.518,8.185,1.121,13.747h-2.805Z" transform="translate(-84.37 -58.806)"/><g transform="translate(653.778 516.925)"><path class="l" d="M745.837,567.61H734.2c-8.514,0-15.416,9.761-15.416,21.8s6.9,21.8,15.416,21.8h11.636c8.515,0,15.417-9.761,15.417-21.8S754.352,567.61,745.837,567.61Z" transform="translate(-718.785 -567.61)"/><path class="m" d="M751.459,567.61c-8.514,0-15.416,9.761-15.416,21.8s6.9,21.8,15.416,21.8,15.417-9.761,15.417-21.8-6.9-21.8-15.417-21.8" transform="translate(-724.407 -567.61)"/><path class="s" d="M754.31,579.987c-5.255,0-9.515,6.024-9.515,13.454s4.26,13.457,9.515,13.457,9.516-6.024,9.516-13.457-4.26-13.454-9.516-13.454" transform="translate(-727.258 -571.642)"/><path class="e" d="M753.481,580.067c-4.867.595-8.686,6.366-8.686,13.4a18.364,18.364,0,0,0,.7,5.078c4.879-4.587,10.893-9.666,14.89-12.916C758.81,582.529,756.324,580.414,753.481,580.067Z" transform="translate(-727.258 -571.668)"/><path class="o" d="M762.46,594.973a17.384,17.384,0,0,0-1.785-7.839,7.75,7.75,0,0,0-5.467-2.445c-5.255,0-9.515,6.025-9.515,13.455a19.049,19.049,0,0,0,.1,1.906c1.318,4.569,4.36,7.883,7.984,8.326C758.64,607.781,762.46,602.01,762.46,594.973Z" transform="translate(-727.551 -573.174)"/><path class="e" d="M759.619,594.276s-6.814,7.422-8.649,9.339c.367.492,1.9,2.673,2.34,3.248a4.644,4.644,0,0,0,3.639,2.008c2.969,0,5.376-3.4,5.376-7.6a9.356,9.356,0,0,0-1.583-5.38C760.35,595.336,759.619,594.276,759.619,594.276Z" transform="translate(-729.27 -576.297)"/><path class="p" d="M755.509,588.668H753.85c-2.969,0-5.376,3.4-5.376,7.6s2.407,7.6,5.376,7.6h1.659Z" transform="translate(-728.457 -574.47)"/><path class="o" d="M756.31,588.668c-2.969,0-5.376,3.4-5.376,7.6s2.407,7.6,5.376,7.6,5.376-3.4,5.376-7.6-2.407-7.6-5.376-7.6" transform="translate(-729.258 -574.47)"/><path class="g" d="M757.817,595.209c-1.247,0-2.257,1.429-2.257,3.192s1.011,3.193,2.257,3.193,2.258-1.429,2.258-3.193-1.011-3.192-2.258-3.192" transform="translate(-730.765 -576.601)"/></g><path class="q" d="M744.157,567.622c-2.1,0-9.352-.005-10.371,0-17.51.1-21.288,36.721-2.874,43.115C725.362,588.709,730.455,569.361,744.157,567.622Z" transform="translate(-65 -50.688)"/><path class="t" d="M891.146,547.48h35.768l30.966-9.331V418.256H861.232v-6.228H832.056l-52.573,6.228H712.321v-6.228H683.144l-25.563,6.228-20.6,87.32L652.4,543.316l23.488,4.164h25.343l.026-12.866c2.8-18.646,11.785-21.229,18.062-22.013,7.344-.919,18.061,9.933,18.061,22.013l.025,12.866h117.57L855,534.614c2.8-18.646,11.785-21.229,18.062-22.013,7.344-.919,18.061,9.933,18.061,22.013Z" transform="translate(-38.358 0)"/><path class="t" d="M615.69,543.316V520.738l-5.931-81.666,10.6-11.394.516-9.422h25.564v-6.228H593.864v6.228H529.49l-.516,9.422,4.678,74.818-9.346,18.243v22.577Z" transform="translate(-1.651)"/><path class="u" d="M664.452,435.24H666.9v83.906l-7.12,9.154-.125-1.886c3.8-16.235,2.758-11.776,2.944-12.574l1.732-76.264-.434-1.058Z" transform="translate(-45.745 -7.562)"/><path class="u" d="M528.974,435.24h91.383l-.117,2.336-14.457,61.642,10.076,25.709-.169,3.374H524.306l.169-3.374,12.562-46.745-8.181-40.605Z" transform="translate(-1.651 -7.562)"/><path class="u" d="M676.12,435.24h53.949v72.792l-37.159,7.145-16.79.318Z" transform="translate(-51.108 -7.562)"/><path class="v" d="M678.569,481.018V438.7h50.646v68.417l-48.191,10.2Z" transform="translate(-51.905 -8.69)"/><path class="u" d="M691.464,530.13l-3.5,8.941,3.5,5.682,5.305-1.02V538.6Z" transform="translate(-54.967 -38.475)"/><path class="w" d="M547.619,589.466c2.784,3.677-.438,10.065-3.837,7.506C539.249,593.56,544.086,584.8,547.619,589.466Z" transform="translate(-7.396 -57.369)"/><path class="w" d="M632.953,589.663c2.722-4.031,7.1.775,5.307,5.426C635.835,601.381,629.588,594.645,632.953,589.663Z" transform="translate(-36.728 -57.377)"/><path class="x" d="M519.24,501.464h5.844l.476,20.217-2.429,18.71H519.24Z" transform="translate(0 -29.136)"/><rect class="y" width="52.573" height="6.228" transform="translate(741.125 412.028)"/><path class="v" d="M528.938,438.7h91.384l-4.382,87.351H524.557l.307-6.11C525.039,516.438,528.756,442.339,528.938,438.7Z" transform="translate(-1.732 -8.69)"/><path class="u" d="M660.1,526.055l4.381-87.351h.918v80.538Z" transform="translate(-45.887 -8.69)"/><path class="w" d="M649.234,588.337c3.741,1.237,3.12,9.064-.669,9.214C643.466,597.753,644.567,586.8,649.234,588.337Z" transform="translate(-41.037 -57.388)"/><path class="z" d="M686.5,553.045l5.305.51v31.433h-1.651l-17.416-27.794Z" transform="translate(-50.007 -45.94)"/><path class="e" d="M690.745,540.39h-1.651l-3.332-11.236,3.332-27.69h1.651Z" transform="translate(-54.249 -29.136)"/><path class="aa" d="M675.019,542.964l-2.278-3.636,2.278-1.694Z" transform="translate(-50.007 -40.919)"/><path class="ab" d="M698.458,552.662l-5.305,1.02v-2.357l5.305-1.02Z" transform="translate(-56.656 -45.047)"/><rect class="ac" width="3.303" height="2.336" transform="translate(793.764 538.84)"/><rect class="ac" width="3.303" height="2.336" transform="translate(654.464 538.84)"/><rect class="ac" width="3.303" height="2.336" transform="translate(619.232 538.84)"/><rect class="u" width="53.949" height="72.792" transform="translate(792.64 427.678)"/><rect class="v" width="50.646" height="68.121" transform="translate(794.292 430.013)"/><rect class="u" width="53.949" height="72.792" transform="translate(736.764 427.678)"/><rect class="v" width="50.646" height="68.121" transform="translate(738.416 430.013)"/><rect class="u" width="53.949" height="72.792" transform="translate(680.888 427.678)"/><rect class="v" width="50.646" height="68.121" transform="translate(682.54 430.013)"/><path class="u" d="M1061.567,495.884l-26.975,12.148h-26.975V435.24h53.949Z" transform="translate(-159.101 -7.562)"/><path class="v" d="M1060.713,495.305V438.7h-50.646v68.121h25.067Z" transform="translate(-159.899 -8.69)"/><rect class="ac" width="3.303" height="2.336" transform="translate(857.728 538.84)"/><rect class="ac" width="3.303" height="2.336" transform="translate(731.557 538.84)"/><rect class="ac" width="45.141" height="9.342" transform="translate(545.776 530.863)"/><path class="w" d="M534.556,589.467c2.8,3.7-.437,10.067-3.837,7.506C526.189,593.563,531.026,584.806,534.556,589.467Z" transform="translate(-3.141 -57.37)"/><path class="x" d="M684.852,501.464V540.39H672.741v-4.671h3.853v-8.175h-3.853v-4.671h3.853V501.464Z" transform="translate(-50.007 -29.136)"/></g></svg>