<?xml version="1.0" encoding="UTF-8"?>
<!-- Generator: Adobe Illustrator 21.0.0, SVG Export Plug-In . SVG Version: 6.00 Build 0)  -->
<svg version="1.1" id="Layer_1" xmlns="http://www.w3.org/2000/svg" xmlns:xlink="http://www.w3.org/1999/xlink" x="0px" y="0px" viewBox="0 0 512 227.2" style="enable-background:new 0 0 512 227.2;" xml:space="preserve">
<style type="text/css">
	.st0{fill:#FFFFFF;}
	.st1{fill:#7D868C;}
</style>
<g>
	<g>
		<g>
			<g>
				<path class="st0" d="M380.9,215.9l-84.1-84.1c-10.1-10.1-10.1-26.4,0-36.4l84.1-84.1c10.1-10.1,26.4-10.1,36.4,0l84.1,84.1      c10.1,10.1,10.1,26.4,0,36.4l-84.1,84.1C407.3,225.9,391,225.9,380.9,215.9z"/>
			</g>
			<g>
				<g>
					<path class="st1" d="M383.6,139c0,0.3-0.1,0.5-0.4,0.6c-0.8,0.3-1.6,0.4-2.3,0.4c-1.9,0-3.2-0.7-3.9-2.1       c-1.6,1.4-3.5,2.1-5.6,2.1c-2.6,0-4.8-0.8-6.4-2.4c-1.7-1.6-2.5-3.7-2.5-6.2c0-2.5,0.8-4.6,2.5-6.2c1.7-1.6,3.8-2.4,6.4-2.4       c1.8,0,3.4,0.5,4.8,1.5v-0.5c0-0.3,0.2-0.5,0.5-0.5h3.1c0.3,0,0.5,0.2,0.5,0.5v11.3c0,0.4,0.1,0.7,0.3,0.9       c0.2,0.2,0.5,0.3,0.9,0.3c0.4,0,0.8,0,1.2-0.1c0.4-0.1,0.6,0.1,0.6,0.4L383.6,139z M371.4,136.6c1.4,0,2.5-0.5,3.4-1.5       c0.9-1,1.3-2.2,1.3-3.8c0-1.5-0.4-2.8-1.3-3.8c-0.9-1-2-1.5-3.4-1.5c-1.4,0-2.6,0.5-3.5,1.5c-0.9,1-1.4,2.2-1.4,3.8       c0,1.5,0.5,2.8,1.4,3.8C368.8,136.2,370,136.6,371.4,136.6z"/>
					<path class="st1" d="M390.7,140c-1.4,0-2.6-0.3-3.4-1c-0.9-0.7-1.3-1.6-1.3-2.7v-20.2c0-0.3,0.2-0.5,0.5-0.5h3.1       c0.3,0,0.5,0.2,0.5,0.5v19c0,0.4,0.1,0.7,0.3,0.9c0.2,0.2,0.5,0.3,0.9,0.3c0.4,0,0.8,0,1.3-0.1c0.4-0.1,0.6,0.1,0.6,0.4       l0.3,2.3c0,0.3-0.1,0.5-0.4,0.6C392.1,139.9,391.4,140,390.7,140z"/>
					<path class="st1" d="M397.8,119.8c-0.7,0-1.3-0.2-1.8-0.7c-0.5-0.5-0.7-1-0.7-1.7c0-0.7,0.2-1.2,0.7-1.7       c0.5-0.5,1.1-0.7,1.8-0.7c0.7,0,1.3,0.2,1.8,0.7c0.5,0.5,0.8,1,0.8,1.7c0,0.7-0.3,1.2-0.8,1.7       C399.1,119.5,398.5,119.8,397.8,119.8z M400.5,140c-1.4,0-2.6-0.3-3.4-1c-0.9-0.7-1.3-1.6-1.3-2.7v-12.5c0-0.3,0.2-0.5,0.5-0.5       h3.1c0.3,0,0.5,0.2,0.5,0.5v11.3c0,0.4,0.1,0.7,0.3,0.9c0.2,0.2,0.5,0.3,0.9,0.3c0.4,0,0.8,0,1.3-0.1c0.4-0.1,0.6,0.1,0.6,0.4       l0.3,2.3c0,0.3-0.1,0.5-0.4,0.6C402,139.9,401.2,140,400.5,140z"/>
					<path class="st1" d="M412.5,140c-2.3,0-4.1-0.5-5.6-1.4c-1.4-0.9-2.2-2.3-2.5-4c0-0.4,0.1-0.5,0.5-0.5l2.8,0       c0.3,0,0.5,0.1,0.5,0.4c0.5,1.5,1.9,2.3,4.2,2.3c1,0,1.8-0.2,2.4-0.5c0.6-0.3,0.9-0.8,0.9-1.3c0-0.7-0.4-1.1-1.1-1.4       c-0.7-0.3-1.6-0.5-2.7-0.7c-1-0.1-2.1-0.3-3.1-0.5c-1-0.2-1.9-0.7-2.7-1.4c-0.7-0.7-1.1-1.7-1.1-3c0-1.5,0.7-2.8,2-3.7       c1.3-0.9,3-1.4,5.2-1.4c2,0,3.6,0.4,5,1.3s2.1,2,2.4,3.5c0,0.4-0.1,0.5-0.5,0.5h-2.8c-0.3,0-0.5-0.1-0.5-0.3       c-0.2-0.6-0.6-1.1-1.3-1.5c-0.6-0.4-1.4-0.6-2.2-0.6c-0.9,0-1.7,0.2-2.2,0.5c-0.6,0.3-0.8,0.7-0.8,1.2c0,0.6,0.3,1,0.8,1.4       c0.5,0.3,1.2,0.6,2,0.6c0.8,0.1,1.6,0.2,2.5,0.4c0.9,0.2,1.8,0.4,2.6,0.7c0.8,0.3,1.4,0.7,2,1.4c0.5,0.7,0.8,1.6,0.8,2.7       c0,1.6-0.7,2.8-2,3.8C416.4,139.5,414.6,140,412.5,140z"/>
					<path class="st1" d="M430.7,140c-2.7,0-4.9-0.8-6.5-2.4c-1.6-1.6-2.5-3.7-2.5-6.2c0-2.6,0.8-4.7,2.5-6.2       c1.6-1.6,3.8-2.4,6.5-2.4c2.1,0,3.9,0.5,5.4,1.6c1.5,1.1,2.4,2.5,2.8,4.2c0.1,0.4-0.1,0.5-0.4,0.5h-3.2c-0.3,0-0.5-0.1-0.5-0.4       c-0.2-0.7-0.7-1.3-1.5-1.7c-0.7-0.4-1.6-0.7-2.5-0.7c-1.5,0-2.6,0.5-3.5,1.4c-0.9,0.9-1.3,2.2-1.3,3.7c0,1.5,0.4,2.8,1.3,3.7       c0.9,0.9,2.1,1.4,3.5,1.4c1,0,1.8-0.2,2.5-0.7c0.7-0.4,1.2-1,1.5-1.7c0.1-0.3,0.3-0.4,0.5-0.4h3.2c0.4,0,0.5,0.2,0.4,0.5       c-0.4,1.8-1.3,3.2-2.8,4.2C434.7,139.5,432.9,140,430.7,140z"/>
					<path class="st1" d="M456.5,137.7c-1.7,1.6-3.8,2.4-6.5,2.4c-2.7,0-4.9-0.8-6.5-2.4c-1.7-1.6-2.5-3.7-2.5-6.2       c0-2.6,0.8-4.7,2.5-6.2c1.7-1.6,3.8-2.4,6.5-2.4c2.7,0,4.9,0.8,6.5,2.4c1.7,1.6,2.5,3.7,2.5,6.2       C459,134,458.2,136.1,456.5,137.7z M446.5,135.1c0.9,0.9,2.1,1.4,3.5,1.4c1.5,0,2.6-0.5,3.5-1.4c0.9-0.9,1.4-2.2,1.4-3.7       c0-1.5-0.5-2.8-1.4-3.7c-0.9-0.9-2.1-1.4-3.5-1.4c-1.5,0-2.6,0.5-3.5,1.4c-0.9,0.9-1.4,2.2-1.4,3.7       C445.1,132.9,445.6,134.2,446.5,135.1z"/>
					<path class="st1" d="M359.2,115.9c0.3,0,0.5,0.2,0.5,0.5V131c0,2.8-0.8,5.1-2.5,6.7c-1.7,1.6-4,2.4-6.9,2.4       c-2.5,0-4.6-0.7-6.2-2c-1.6-1.3-2.6-3.1-2.8-5.3c0-0.4,0.1-0.5,0.5-0.5h3.3c0.3,0,0.5,0.2,0.5,0.5c0.2,1.1,0.7,1.9,1.6,2.6       c0.9,0.7,2,1,3.4,1c1.4,0,2.6-0.5,3.5-1.5c0.9-1,1.3-2.3,1.3-3.9v-10.1c0-1.4-1.4-1.6-2.3-1.7h-0.3c-0.2,0-0.4-0.2-0.4-0.4       v-2.3c0-0.2,0.2-0.4,0.4-0.4H359.2z"/>
				</g>
				<g>
					<path class="st1" d="M352.2,148.6c1.1,0,2.1,0.5,2.4,1.7h-0.9c-0.3-0.6-0.8-0.9-1.5-0.9c-1.1,0-1.8,0.9-1.8,1.9       c0,1.1,0.7,1.9,1.8,1.9c0.9,0,1.6-0.4,1.7-1.4h-1.7v-0.8h2.5c0.1,1.6-0.7,3-2.6,3c-1.5,0-2.7-1-2.7-2.8       C349.5,149.6,350.8,148.6,352.2,148.6z"/>
					<path class="st1" d="M358.8,154.1c-1.5,0-2.7-1-2.7-2.8c0-1.7,1.3-2.8,2.7-2.8c1.5,0,2.7,1,2.7,2.8       C361.6,153,360.4,154.1,358.8,154.1z M358.8,153.2c1,0,1.8-0.7,1.8-1.9c0-1.2-0.8-1.9-1.8-1.9c-1,0-1.8,0.7-1.8,1.9       C357,152.6,357.8,153.2,358.8,153.2z"/>
					<path class="st1" d="M366.5,151.2c0.6,0.2,0.9,0.6,0.9,1.2c0,1-0.7,1.5-1.7,1.5h-2.4v-5.4h2.2c1,0,1.7,0.5,1.7,1.5       C367.1,150.6,366.9,151,366.5,151.2z M364.1,149.4v1.5h1.2c0.5,0,0.9-0.2,0.9-0.7c0-0.5-0.4-0.8-0.9-0.8H364.1z M364.1,151.7       v1.6h1.5c0.5,0,0.9-0.3,0.9-0.8c0-0.3-0.1-0.5-0.3-0.6c-0.2-0.2-0.5-0.2-0.7-0.2H364.1z"/>
					<path class="st1" d="M371.3,153.3v0.7h-2.6v-0.7h0.9v-3.9h-0.8v-0.7h2.5v0.7h-0.8v3.9H371.3z"/>
					<path class="st1" d="M376.2,149.4h-2.4v1.4h2.2v0.8h-2.2v1.6h2.4v0.8h-3.3v-5.4h3.3V149.4z"/>
					<path class="st1" d="M382.3,153.9v0.1h-0.9l-1.3-1.9h-1.2v1.9H378v-5.4h2.2c1.2,0,1.9,0.8,1.9,1.7c0,0.7-0.4,1.4-1.1,1.6       L382.3,153.9z M380.2,151.4c0.6,0,1-0.4,1-1c0-0.6-0.4-1-1-1h-1.3v2H380.2z"/>
					<path class="st1" d="M384.7,150.4l0.1,1.7v1.9h-0.9v-5.4h0.3l3.3,3.6l-0.1-1.6v-2h0.9v5.4H388L384.7,150.4z"/>
					<path class="st1" d="M392.7,154.1c-1.5,0-2.7-1-2.7-2.8c0-1.7,1.3-2.8,2.7-2.8c1.5,0,2.7,1,2.7,2.8       C395.4,153,394.3,154.1,392.7,154.1z M392.7,153.2c1,0,1.8-0.7,1.8-1.9c0-1.2-0.8-1.9-1.8-1.9c-1,0-1.8,0.7-1.8,1.9       C390.9,152.6,391.7,153.2,392.7,153.2z"/>
					<path class="st1" d="M401.7,148.7c1.7,0,2.6,1.3,2.6,2.7s-0.9,2.7-2.6,2.7h-1.9v-5.4H401.7z M401.7,153.2       c1.1,0,1.7-0.9,1.7-1.9c0-1-0.6-1.9-1.7-1.9h-1v3.7H401.7z"/>
					<path class="st1" d="M409.3,149.4h-2.4v1.4h2.2v0.8h-2.2v1.6h2.4v0.8H406v-5.4h3.3V149.4z"/>
					<path class="st1" d="M412,153.2h2.3v0.8h-3.2v-5.4h0.9V153.2z"/>
					<path class="st1" d="M421.4,149.4H419v1.4h2.2v0.8H419v1.6h2.4v0.8h-3.3v-5.4h3.3V149.4z"/>
					<path class="st1" d="M423.7,152.5c0,0.6,0.7,0.8,1.3,0.8c0.6,0,1.2-0.1,1.2-0.8c0-0.7-0.7-0.8-1.3-0.8c-1-0.1-2-0.4-2-1.5       c0-1.1,1-1.6,2-1.6c1,0,2,0.5,2,1.6h-0.8c0-0.6-0.7-0.8-1.2-0.8c-0.5,0-1.1,0.2-1.1,0.8c0,0.6,0.6,0.7,1.2,0.8       c1.1,0.1,2.1,0.3,2.1,1.6c0,1.2-1.1,1.6-2.1,1.6c-1.1,0-2.1-0.5-2.2-1.6H423.7z"/>
					<path class="st1" d="M428.2,149.4v-0.8h4v0.8h-1.6v4.6h-0.9v-4.6H428.2z"/>
					<path class="st1" d="M434.1,152.9l-0.5,1.1h-0.9v-0.1l2.5-5.3h0.4l2.5,5.3v0.1h-0.9l-0.5-1.1H434.1z M434.4,152.2h1.9l-0.9-2.1       L434.4,152.2z"/>
					<path class="st1" d="M441.3,148.7c1.7,0,2.6,1.3,2.6,2.7s-0.9,2.7-2.6,2.7h-1.9v-5.4H441.3z M441.3,153.2       c1.1,0,1.7-0.9,1.7-1.9c0-1-0.6-1.9-1.7-1.9h-1v3.7H441.3z"/>
					<path class="st1" d="M448,154.1c-1.5,0-2.7-1-2.7-2.8c0-1.7,1.3-2.8,2.7-2.8c1.5,0,2.7,1,2.7,2.8       C450.7,153,449.6,154.1,448,154.1z M448,153.2c1,0,1.8-0.7,1.8-1.9c0-1.2-0.8-1.9-1.8-1.9c-1,0-1.8,0.7-1.8,1.9       C446.2,152.6,447,153.2,448,153.2z"/>
				</g>
				<g>
					<g>
						<g>
							<path class="st1" d="M399.6,51v3c0,0,0.5-0.1,1.2,0h0v-3C400.1,50.7,399.6,51,399.6,51z"/>
							<path class="st1" d="M387.2,51.7c0,0.2,0.1,0.3,0.3,0.4c1.3,0.6,2.6,0.9,3.9,0.9c1.8,0,3.5-0.5,5.1-1.6         c2.1-1.4,5-1.5,7.3-0.3c-0.3,0.3-1,0.7-1.9,0.7h-0.5v1.1h0.5c2.1,0,3.1-1.5,3.2-1.6l0,0c0,0,0,0,0,0l0,0         c0-0.1,0.1-0.2,0.1-0.3v-6.3c0-0.2-0.1-0.3-0.2-0.4c-2.6-1.8-6.3-1.8-8.9,0c-2.5,1.7-5.3,1.9-8,0.7c-0.2-0.1-0.5,0-0.7,0.2         c-0.1,0.2-0.1,0.5,0.1,0.7l3.4,3l-3.4,2.5C387.2,51.4,387.2,51.6,387.2,51.7z M391.9,49.2c0.1-0.1,0.2-0.2,0.2-0.4         c0-0.2-0.1-0.3-0.2-0.4l-2-1.7c2.3,0.4,4.5-0.1,6.5-1.5c2.2-1.5,5.3-1.6,7.5-0.1v5.1c-2.5-1.3-5.8-1.1-8.1,0.5         c-2.2,1.5-4.7,1.8-7.1,1L391.9,49.2z"/>
							<polygon class="st1" points="399.6,48.4 400.8,48.4 400.8,47.2 401.9,47.2 401.9,46 400.8,46 400.8,44.9 399.6,44.9          399.6,46 398.4,46 398.4,47.2 399.6,47.2        "/>
							<path class="st1" d="M425.7,91.7c0.4-0.4,0.8-0.9,1.2-1.3c1.6-1.8,3.2-3.7,4.3-5.9c0.9-2,1.3-4,1-5.9c-0.4-3.3-2.6-6-5.5-7.2         c0.5-0.8,0.7-1.8,0.6-2.7l0,0c0-0.2-0.2-0.4-0.4-0.5c-0.2-0.1-0.4,0-0.6,0.1c-0.3,0.3-0.7,0.5-1.1,0.6         c-0.4,0.1-0.9,0.1-1.3-0.1l-0.1,0c-1.3-0.5-2.6-0.7-3.9-0.7c-0.5,0-1.1,0-1.6,0.1c0,0,0-0.1,0-0.1c0-0.4-0.1-0.8-0.2-1.2         c-0.1-0.2-0.2-0.3-0.3-0.4c-0.2-0.1-0.3,0-0.5,0c-0.2,0.1-0.5,0.2-0.8,0.2c-0.1,0-0.1,0-0.2,0c-0.3,0-0.6,0-0.8,0         c-0.4,0-0.8,0-1.2,0.1c-0.4,0.1-0.8,0.1-1.2,0.2c-0.4,0.1-0.7,0.2-1.1,0.4c-0.4,0.2-0.7,0.3-1,0.5c-0.3,0.2-0.6,0.4-0.9,0.7         c-0.3,0.2-0.6,0.5-0.9,0.8c-0.2,0.2-0.3,0.4-0.5,0.6c-0.2,0.2-0.3,0.4-0.4,0.6c-0.3,0.4-0.5,0.9-0.8,1.3c0,0-0.1,0.1-0.1,0.1         c0,0,0,0,0,0.1c0,0,0,0,0,0.1c0,0,0,0,0,0c0,0,0,0,0,0c-0.1,0.1-0.2,0.2-0.3,0.3c-0.1,0.1-0.2,0.2-0.3,0.3         c-0.2,0.2-0.3,0.3-0.5,0.5c-0.1,0.1-0.1,0.1-0.2,0.2c-0.1,0.1-0.2,0.2-0.3,0.3c0,0-0.1,0.1-0.1,0.1l-1.7-1.2l-0.3-1.7         c0.1-0.2,0.2-0.4,0.3-0.6l0.1-0.1c0.1-0.1,0.1-0.2,0.1-0.3l0-0.1c0-0.1,0.1-0.2,0.1-0.3c0,0,0-0.1,0-0.1c0,0,0-0.1,0-0.1         l0.5-0.1l0.4-2.9l0,0c0,0,0,0,0,0l-0.5-0.1c0-0.1,0-0.2,0-0.3c0-0.1,0-0.2-0.1-0.4c-0.1-0.3-0.2-0.7-0.4-1c0,0,0,0,0-0.1         c-0.4-0.8-1.1-1.5-2.1-1.8c0,0,0,0-0.1,0c0,0,0-0.1,0-0.1c0-0.1,0.1-0.1,0.1-0.2c0.3-0.7,0.9-1.4,1.7-1.7         c0.1,0.3,0.2,0.5,0.2,0.5c0.1,0.3,0.3,0.4,0.5,0.3c0.1,0,0.3-0.1,0.4-0.2c0.2-0.1,0.4-0.3,0.5-0.5c0.7-1.1,0.8-2.4,0.3-3.6         c-0.4-0.9-1.2-1.5-2.2-1.6c-0.3,0-0.6,0-1,0.2c-0.4-0.9-1.4-1.6-2.5-1.6c-1.1,0-2.1,0.7-2.5,1.6c-0.4-0.1-0.7-0.2-1-0.2         c-1,0.1-1.8,0.7-2.2,1.6c-0.5,1.2-0.4,2.5,0.3,3.6c0.1,0.2,0.3,0.4,0.5,0.5c0.1,0.1,0.3,0.1,0.4,0.2c0.2,0,0.4-0.1,0.5-0.3         c0,0,0.1-0.2,0.2-0.5c0.7,0.4,1.3,1,1.7,1.7c0,0.1,0.1,0.1,0.1,0.2c0,0,0,0.1,0,0.1c0,0,0,0-0.1,0c-0.9,0.3-1.6,1-2.1,1.8         c0,0,0,0,0,0.1c-0.2,0.3-0.3,0.6-0.4,1c0,0.1,0,0.2-0.1,0.4c0,0.1,0,0.2,0,0.3l-0.5,0.1c0,0,0,0,0,0l0,0l0.4,2.9l0.5,0.1         c0,0,0,0.1,0,0.1c0,0,0,0.1,0,0.1c0,0.1,0.1,0.2,0.1,0.3l0,0.1c0,0.1,0.1,0.2,0.1,0.3l0.1,0.1c0.1,0.2,0.2,0.4,0.3,0.6         l-0.3,1.7l-1.8,1.2c-0.3-0.3-0.7-0.6-1-0.9c-0.1-0.1-0.1-0.1-0.2-0.2c-0.2-0.2-0.4-0.4-0.5-0.7c0,0,0,0,0,0c0,0,0,0,0-0.1         c0,0,0,0,0-0.1c0,0-0.1-0.1-0.1-0.1c-0.3-0.4-0.5-0.9-0.8-1.3c-0.1-0.2-0.3-0.4-0.4-0.6c-0.2-0.2-0.3-0.4-0.5-0.6         c-0.3-0.3-0.6-0.5-0.9-0.8c-0.3-0.2-0.6-0.5-0.9-0.7c-0.3-0.2-0.7-0.4-1-0.5c-0.4-0.2-0.7-0.3-1.1-0.4         c-0.4-0.1-0.8-0.2-1.2-0.2c-0.4-0.1-0.8-0.1-1.2-0.1c-0.3,0-0.5,0-0.8,0c-0.1,0-0.1,0-0.2,0c-0.3,0-0.5-0.1-0.8-0.2         c-0.1-0.1-0.3-0.1-0.5,0c-0.2,0.1-0.3,0.2-0.3,0.4c-0.1,0.4-0.2,0.8-0.2,1.2c0,0,0,0.1,0,0.1c-0.6-0.1-1.2-0.2-1.8-0.2         c-1.3,0-2.7,0.2-3.9,0.7l-0.1,0c-0.4,0.1-0.8,0.2-1.3,0.1c-0.4-0.1-0.8-0.3-1.1-0.6c-0.2-0.2-0.4-0.2-0.6-0.1         c-0.2,0.1-0.4,0.3-0.4,0.5l0,0c-0.1,0.9,0.1,1.9,0.6,2.7c-2.9,1.2-5,3.9-5.5,7.2c-0.3,1.9,0.1,3.9,1,5.9         c1.1,2.3,2.7,4.1,4.3,5.9c0.4,0.4,0.8,0.9,1.2,1.3c0.1,0.2,0.3,0.3,0.4,0.5c1,1.1,2.1,2.4,2.1,3.7c0,1.3-0.8,2.1-2.1,2.1         c-0.3,0-0.6,0-0.8-0.1c-0.1,0-0.2-0.1-0.3-0.1l0,0c0,0-1.1-0.1-1.4,0.9c-0.1,0-0.2,0-0.3,0c-0.5,0.2-0.9,0.7-0.8,1.2l0,0.1         c0.4,3.3,3.2,5.9,6.5,5.9l0.1,0c1.5,0,3-0.5,4.1-1.4c0,0,0,0,0,0c0.2,0.2,0.5,0.3,0.8,0.3c0.2,0,0.5-0.1,0.7-0.2         c0.9-0.6,1.6-1.5,2.2-2.4l0,0c0-0.1,0.1-0.2,0.1-0.2c0,0.1,0.1,0.1,0.1,0.2c0.1,0.1,0.2,0.3,0.2,0.4         c2.9,4.5,8.3,7.3,14.1,7.3s11.2-2.8,14.1-7.3c0.1-0.1,0.2-0.3,0.2-0.4c0-0.1,0.1-0.1,0.1-0.2c0,0.1,0.1,0.2,0.1,0.2l0,0         c0.5,1,1.3,1.8,2.2,2.4c0.2,0.1,0.4,0.2,0.7,0.2c0.3,0,0.6-0.1,0.8-0.3c0,0,0,0,0,0c1.1,0.9,2.6,1.4,4.1,1.4l0.1,0         c3.3,0,6.1-2.6,6.5-5.9l0-0.1c0.1-0.6-0.3-1.1-0.8-1.2c-0.1,0-0.2,0-0.3,0c-0.3-1-1.4-0.9-1.4-0.9l0,0c-0.1,0-0.2,0-0.3,0.1         c-0.3,0.1-0.5,0.1-0.8,0.1c-1.3,0-2.1-0.8-2.1-2.1c0-1.2,1.1-2.5,2.1-3.7C425.5,92,425.6,91.8,425.7,91.7z M420,69.2         c1.2,0,2.4,0.2,3.5,0.6l0.1,0c0.6,0.2,1.3,0.3,1.9,0.1c0.2,0,0.4-0.1,0.6-0.2c-0.1,0.4-0.3,0.8-0.5,1.2c0,0-1.5-0.3-2.3-0.3         c-3,0-5.6,1.6-7,3.9c-0.1-0.5-0.6-0.9-1.2-0.9h-3.4C413.5,70.9,416.6,69.2,420,69.2z M421.2,83.3c0,0.1,0.1,0.2,0.1,0.3         c0,0,0.8,2.2,3.3,2.1c0,0,0.1,0,0.1,0c0,0,0,0,0,0l0,0c-2.5,2.5-6,3.9-8.3,6.5v-9.1c0.1-0.1,0.2-0.2,0.3-0.2         c0.7-0.7,1.3-1.5,2-2.2c1-1,2.2-1.9,3.7-2.1c0.6-0.1,1.2-0.1,1.8,0.2c0.3,0.2,0.5,0.4,0.7,0.7c0,0,0.5,1-0.3,1.8         c0,0-0.1,0.1-0.1,0.1c-0.2,0.2-0.5,0.3-0.8,0.3c-0.2,0-0.4,0-0.6-0.1c-0.2-0.1-0.4-0.1-0.7-0.1c-0.3,0-0.7,0.2-0.9,0.5         C421.4,82.1,421,82.6,421.2,83.3z M404.2,67.4l-0.1,1l0,0h0v0l-0.6,0.1l-0.5,0.1v-1.5c0.2,0.1,0.5,0.1,0.7,0.2         C403.9,67.3,404,67.4,404.2,67.4z M400.2,70.4L400.2,70.4L400.2,70.4l2.9-0.6l0,0c-0.1,0.2-0.2,0.4-0.4,0.7         c-0.1,0.1-0.2,0.3-0.3,0.4c-0.6,0.7-1.3,1.2-2.2,1.2c-0.9,0-1.7-0.5-2.2-1.2c-0.1-0.1-0.2-0.3-0.3-0.4         c-0.1-0.2-0.3-0.4-0.4-0.7l0,0L400.2,70.4z M398.4,68.9v-2c0.4-0.1,0.8-0.2,1.2-0.3v2.5L398.4,68.9z M400.7,69.1v-2.5         c0.3,0.1,0.7,0.2,1.2,0.3v2L400.7,69.1z M396.9,59.9c0.2-0.3,0.5-0.6,0.8-0.8c0,0-1.1,0-2.2,1.1c-0.3-0.7-0.3-1.5,0-2.2         c0.2-0.5,0.7-0.9,1.2-0.9c0.4,0,0.8,0.1,1.2,0.3c0.9,0.5,1.5,1.3,1.7,2.3c0,0,0.2-1.3-0.7-2.6c-0.1-0.1-0.2-0.2-0.3-0.3         c0.2-0.6,0.9-1.1,1.5-1.1s1.4,0.5,1.5,1.1c-0.1,0.1-0.2,0.2-0.3,0.3c-1,1.3-0.7,2.6-0.7,2.6c0.2-1,0.9-1.8,1.7-2.3         c0.4-0.2,0.8-0.3,1.2-0.3c0.5,0,1,0.4,1.2,0.9c0.3,0.7,0.3,1.5,0,2.2c-1.1-1.1-2.2-1.1-2.2-1.1c0.3,0.2,0.6,0.5,0.8,0.8         c-1,0.5-1.7,1.3-2.2,2.3c0,0.1-0.1,0.1-0.1,0.2c0,0.1,0,0.1-0.1,0.1c-0.3-0.1-0.6-0.3-0.9-0.5c0,0,0,0,0,0c0,0,0,0,0,0         c-0.3,0.2-0.6,0.3-0.9,0.5c0,0,0-0.1-0.1-0.1c0-0.1-0.1-0.1-0.1-0.2C398.7,61.2,397.9,60.4,396.9,59.9z M398.6,64         c0.3-0.1,0.5-0.2,0.8-0.3c0.3-0.1,0.5-0.3,0.8-0.4c0.3,0.1,0.5,0.3,0.8,0.4c0.3,0.1,0.5,0.2,0.8,0.3c0.9,0.3,1.6,1.1,1.8,2.1         c-3.1-0.8-3.3-0.8-3.4-0.8v0h0c0,0,0,0,0,0h0v0c-0.1,0-0.3,0.1-3.4,0.8C397.1,65.1,397.7,64.3,398.6,64z M396.2,68.4         L396.2,68.4L396.2,68.4L396.2,68.4l-0.1-1c0.2,0,0.4-0.1,0.5-0.1c0.2-0.1,0.5-0.1,0.7-0.2v1.5l-0.5-0.1L396.2,68.4z          M397.5,73.3l0.2-1c0,0,0.1,0,0.1,0.1c0.7,0.6,1.5,1,2.4,1l0,0c0,0,0,0,0,0c0.9,0,1.7-0.4,2.4-1c0,0,0,0,0.1-0.1l0.2,1         l1.9,1.3c-0.1,0.1-0.2,0.1-0.3,0.2c-0.8,0.5-1.7,0.8-2.6,1c-0.6,0.1-1.1,0.2-1.7,0.2c-0.5,0-1-0.1-1.5-0.2         c-0.9-0.2-1.9-0.5-2.7-1c-0.1-0.1-0.3-0.2-0.4-0.2L397.5,73.3z M374.6,70c0.6,0.1,1.3,0.1,1.9-0.1l0.1,0         c1.1-0.4,2.3-0.6,3.5-0.6c3.4,0,6.5,1.7,8.3,4.5H385c-0.6,0-1.1,0.4-1.2,0.9c-1.5-2.3-4.1-3.9-7-3.9c-0.8,0-2.3,0.3-2.3,0.3         c-0.3-0.3-0.4-0.7-0.5-1.2C374.2,69.9,374.4,69.9,374.6,70z M385.2,99.1c0,0.1,0,0.2,0,0.3c0,0,0,0,0,0.1c0,0.1,0,0.2,0,0.3         c0,0,0,0,0,0c-0.1,0.4-0.2,0.9-0.4,1.3c0,0,0,0,0,0.1c0,0.1-0.1,0.1-0.1,0.2c0,0.1-0.1,0.1-0.1,0.2c-0.4,0.8-1.1,1.6-1.9,2.1         c0.7-1,1.1-2.2,1.1-3.6c0-0.6-0.1-1.2-0.2-1.7l0,0c-0.1,1.3-0.5,2.5-1.1,3.5l0,0c-0.9,1.7-2.7,2.7-4.8,2.8c0,0,0,0-0.1,0         c-2.6,0-5-2.2-5.3-4.9l0,0l0,0c0,0,0,0,0,0c0.7,1.1,2,1.8,3.4,1.8c2.1,0,3.9-1.7,4-3.8c-0.3,0.8-1,1.6-1.8,2c0,0,0,0,0,0         c-0.2,0.1-0.5,0.2-0.7,0.3c-1,0.4-2.9,0.6-4-1.5c0.1,0,0.2,0.1,0.3,0.1c0.2,0.1,0.4,0.1,0.5,0.2c0.2,0,0.4,0.1,0.6,0.1         c0.2,0,0.4,0,0.6,0c0.1,0,0.2,0,0.3,0c0.1,0,0.1,0,0.2,0c0.3-0.1,0.6-0.2,0.8-0.3c0.2-0.1,0.5-0.3,0.7-0.5         c0.2-0.2,0.4-0.4,0.5-0.7c0.1-0.3,0.2-0.5,0.3-0.8c0.1-0.3,0.1-0.6,0.1-0.9c0-1.9-1.6-3.5-2.8-4.9c-1.9-2.2-4-4.3-5.3-7         c-0.8-1.6-1.2-3.4-0.9-5.2c0.5-3.9,3.7-6.9,7.7-6.9c2.6,0,5,1.5,6.2,3.6c0.1,0.2,0.8,1.6,0.8,2.7v3.2c0,0,0,0,0,0         c-0.8-0.9-1.6-1.9-2.7-2.6c-1.5-1.1-3.8-1.9-5.6-0.9c-1.5,0.9-2,2.8-1,4.3c0,0,1,1.5,3,1c0,0-0.6,2.1-3.1,1.2         c-0.2-0.1-0.3-0.2-0.5-0.3c-0.3-0.2-0.6-0.4-0.8-0.7c-0.1-0.1-0.2-0.3-0.3-0.4c-0.1-0.2-0.3-0.4-0.4-0.7         c-0.1-0.3-0.2-0.6-0.3-0.9c-0.2-0.9-0.1-1.9,0.4-2.8c0.6-1.3,1.9-2.3,3.3-2.7c1.4-0.4,3.3-0.2,4.6,0.6         c0.2,0.1,0.4,0.2,0.6,0.4c0.2,0.1,0.3,0.2,0.5,0.4c-0.7-1.6-2.7-2.4-4.4-2.5c-1.9-0.1-3.8,0.8-4.9,2.3         c-1.1,1.4-1.5,3.2-1.2,4.9c0.3,1.9,1.8,3.5,3,4.9c2.1,2.5,4.3,5.1,5.9,8c0.6,1.2,0.9,2.3,0.9,3.6c0,2.6-2,4.7-4.6,4.8l0,0         c0.3,0,0.6,0.1,0.8,0.1c0.6,0,1.3-0.1,1.9-0.4c1-0.4,1.9-1.2,2.5-2.2c2.2-4-1.3-8.1-3.7-11.1c-0.1-0.2-0.9-1.1-1.2-1.5l2.8,2         c0.6,0.4,1.1,0.8,1.7,1.3c0.8,0.7,1.6,1.4,2.2,2.2C384.4,94.8,385.3,96.9,385.2,99.1z M375.4,85.7         C375.4,85.7,375.4,85.7,375.4,85.7c0.1,0,0.1,0,0.1,0c2.5,0.1,3.3-2.1,3.3-2.1c0-0.1,0.1-0.2,0.1-0.3         c0.2-0.7-0.2-1.2-0.2-1.2c-0.2-0.3-0.5-0.4-0.9-0.5c-0.2,0-0.4,0-0.7,0.1c-0.2,0.1-0.4,0.1-0.6,0.1c-0.3,0-0.6-0.1-0.8-0.3         c-0.1,0-0.1-0.1-0.1-0.1c-0.8-0.8-0.3-1.8-0.3-1.8c0.1-0.3,0.4-0.5,0.7-0.7c0.5-0.3,1.2-0.3,1.8-0.2c1.5,0.2,2.7,1.1,3.7,2.1         c0.7,0.7,1.3,1.5,2,2.2c0.1,0.1,0.1,0.1,0.2,0.2v9.1C381.4,89.6,377.9,88.2,375.4,85.7L375.4,85.7z M413.8,99.2         C413.8,99.2,413.8,99.2,413.8,99.2c0,0.4,0.1,0.7,0.2,1.1c0,0,0,0,0,0c-0.2,0.4-0.4,0.9-0.7,1.3c-0.1,0.1-0.1,0.2-0.2,0.4         c-2.6,4-7.5,6.8-13,6.8c-5.6,0-10.4-2.7-13-6.8c-0.1-0.1-0.1-0.2-0.2-0.4c-0.2-0.4-0.5-0.8-0.7-1.3l0,0         c0.1-0.3,0.1-0.7,0.2-1c0,0,0,0,0-0.1c0.1-1.7-0.3-3.5-1.3-5.2c0,0,0,0,0,0V74.8h5.4c-0.7-1.1,0,0-0.7-1.1h0c0,0,0,0,0,0.1         c-1.4-2.6-3.9-4.5-6.7-5.3c0-0.1,0-0.2,0-0.4c0-0.1,0-0.1,0-0.2c0.3,0.1,0.6,0.1,0.9,0.1c0.3,0,0.5,0,0.7,0         c0.1,0,0.1,0,0.2,0c0.4,0,0.8,0.1,1.2,0.1c0.4,0.1,0.8,0.2,1.1,0.3c0.4,0.1,0.7,0.3,1.1,0.5c0.3,0.2,0.7,0.4,1,0.6         c0.3,0.2,0.6,0.5,0.9,0.8c0.3,0.3,0.5,0.6,0.8,0.9c0.3,0.4,0.5,0.8,0.8,1.2c0.3,0.4,0.6,0.8,0.9,1.1c0.2,0.3,0.5,0.5,0.7,0.7         c0.1,0.1,0.2,0.2,0.4,0.3c0,0,0,0,0,0c0.1,0.1,0.2,0.2,0.4,0.3c0,0,0,0,0.1,0c0.1,0.1,0.2,0.2,0.4,0.3c0,0,0,0,0.1,0         c0.1,0.1,0.3,0.2,0.4,0.3c0,0,0,0,0,0c0.5,0.3,1.1,0.6,1.7,0.9c0,0,0.1,0,0.1,0c0.1,0,0.2,0.1,0.3,0.1         c0.3,0.1,0.5,0.2,0.8,0.3c0.7,0.2,1.5,0.3,2.2,0.3c0.8,0,1.5-0.1,2.2-0.3c0.3-0.1,0.5-0.2,0.8-0.3c0.1,0,0.2-0.1,0.3-0.1         c0,0,0.1,0,0.1,0c0.6-0.2,1.2-0.5,1.7-0.9c0,0,0,0,0,0c0.1-0.1,0.3-0.2,0.4-0.3c0,0,0,0,0.1,0c0.1-0.1,0.2-0.2,0.4-0.3         c0,0,0,0,0.1,0c0,0,0.1-0.1,0.1-0.1h0c0,0,0.1-0.1,0.1-0.1c0.1,0,0.1-0.1,0.2-0.1c0,0,0,0,0,0c0.1-0.1,0.2-0.2,0.3-0.3         c0,0,0,0,0.1-0.1l0,0c0.2-0.2,0.5-0.5,0.7-0.7c0.2-0.2,0.3-0.3,0.4-0.5c0,0,0.1-0.1,0.1-0.1c0.1-0.2,0.2-0.3,0.3-0.5         c0,0,0,0,0,0c0,0,0,0,0,0c0.1-0.1,0.2-0.2,0.2-0.3c0.2-0.3,0.4-0.6,0.5-0.8c0.2-0.3,0.5-0.7,0.8-0.9c0.3-0.3,0.6-0.5,0.9-0.8         c0.3-0.2,0.6-0.5,1-0.6c0.3-0.2,0.7-0.4,1.1-0.5c0.4-0.1,0.8-0.2,1.1-0.3c0.4-0.1,0.8-0.1,1.2-0.1c0.1,0,0.1,0,0.2,0         c0.2,0,0.5,0,0.7,0c0.3,0,0.6,0,0.9-0.1c0,0.1,0,0.1,0,0.2c0,0.1,0,0.2,0,0.3c-2.9,0.8-5.4,2.7-6.9,5.4c0,0,0,0,0-0.1h0         c-0.7,1.1,0,0-0.7,1.1h5.4V94c0,0,0,0,0,0C414.1,95.6,413.7,97.5,413.8,99.2z M422.1,95.8c0,0.3,0,0.6,0.1,0.9         c0.1,0.3,0.2,0.6,0.3,0.8c0.1,0.2,0.3,0.5,0.5,0.7c0.2,0.2,0.4,0.4,0.7,0.5c0.3,0.1,0.5,0.2,0.8,0.3c0.1,0,0.1,0,0.2,0         c0.1,0,0.2,0,0.3,0c0.2,0,0.4,0,0.6,0c0.2,0,0.4,0,0.6-0.1c0.2,0,0.4-0.1,0.5-0.2c0.1,0,0.2-0.1,0.3-0.1         c-1.1,2.1-2.9,1.8-4,1.5c-0.2-0.1-0.5-0.2-0.7-0.3c0,0-0.1,0,0,0c-0.8-0.5-1.5-1.2-1.8-2c0.1,2.1,1.9,3.8,4,3.8         c1.4,0,2.7-0.7,3.4-1.8c0,0,0,0,0,0l0,0l0,0c-0.3,2.7-2.7,4.9-5.3,4.9c0,0,0,0-0.1,0c-2,0-3.8-1.1-4.8-2.8l0,0         c-0.6-1.1-1-2.3-1.1-3.5l0,0c-0.2,0.5-0.2,1.1-0.2,1.7c0,1.3,0.4,2.6,1.1,3.6c-0.8-0.6-1.4-1.3-1.9-2.1         c0-0.1-0.1-0.1-0.1-0.2c0-0.1-0.1-0.1-0.1-0.2c0,0,0,0,0-0.1c-0.2-0.4-0.3-0.8-0.4-1.3c0,0,0,0,0,0c0-0.1,0-0.2,0-0.3         c0,0,0,0,0-0.1c0-0.1,0-0.2,0-0.3c-0.2-2.2,0.8-4.3,1.9-5.7c0.7-0.8,1.4-1.5,2.2-2.2c0.6-0.4,1.1-0.9,1.7-1.3l2.8-2         c-0.3,0.4-1.1,1.3-1.2,1.5c-2.4,3-5.8,7.1-3.7,11.1c0.5,1,1.4,1.8,2.5,2.2c0.6,0.2,1.2,0.4,1.9,0.4c0.3,0,0.6,0,0.8-0.1l0,0         c-2.5-0.1-4.6-2.2-4.6-4.8c0-1.3,0.3-2.5,0.9-3.6c1.6-2.9,3.8-5.4,5.9-8c1.2-1.4,2.7-3,3-4.9c0.3-1.7-0.1-3.5-1.2-4.9         c-1.2-1.5-3-2.4-4.9-2.3c-1.7,0.1-3.6,0.9-4.4,2.5c0.2-0.2,0.3-0.3,0.5-0.4c0.2-0.1,0.4-0.3,0.6-0.4c1.3-0.7,3.2-1,4.6-0.6         c1.4,0.4,2.7,1.5,3.3,2.7c0.4,0.9,0.5,1.8,0.4,2.8c-0.1,0.3-0.2,0.6-0.3,0.9c-0.1,0.2-0.2,0.5-0.4,0.7         c-0.1,0.2-0.2,0.3-0.3,0.4c-0.2,0.3-0.5,0.5-0.8,0.7c-0.2,0.1-0.3,0.2-0.5,0.3c-2.4,0.9-3.1-1.2-3.1-1.2c2.1,0.5,3-1,3-1         c1-1.4,0.5-3.4-1-4.3c-1.8-1-4-0.2-5.6,0.9c-1,0.7-1.8,1.7-2.7,2.6c0,0,0,0,0,0v-3.2c0-1.1,0.7-2.4,0.8-2.7         c1.2-2.2,3.5-3.6,6.2-3.6c4,0,7.2,3,7.7,6.9c0.2,1.8-0.2,3.6-0.9,5.2c-1.3,2.7-3.4,4.8-5.3,7         C423.7,92.3,422.1,93.9,422.1,95.8z"/>
						</g>
						<g>
							<path class="st1" d="M402.2,94.7v-0.2c0-0.3-0.2-0.5-0.5-0.5v0.1v1.5l1.9-0.6c0,0.4,0.3,0.8,0.5,1.1c0.2,0.2,0.4,0.5,0.5,0.8         c-0.5,0.2-1.3,0.6-1.4,0.6c-0.1,0.2-0.1,0.4-0.1,0.7c0,0.2,0,0.5,0.1,0.7c-0.4-0.1-0.7-0.2-1-0.4c0,0,0-0.5,0-0.5         c0-0.3-0.2-0.5-0.5-0.5V99c0,0,0,0,0,0c0.5,0.3,1,0.5,1.6,0.6c0.3,0,0.5,0.2,0.5,0.5c0.1,0,0.2-0.1,0.2-0.1         c0-0.1,0-0.3-0.1-0.4c0-0.1-0.1-0.3-0.1-0.4c0-0.2,0.1-0.5,0.1-0.7c0.1,0,0.2,0,0.3-0.1c0.1,0,0.3,0,0.4,0         c0.2,0,0.4,0,0.6,0.1c0.1,0,0.2,0.1,0.4,0.1c0.1,0,0.1,0,0.2,0c0.2,0,0.4,0,0.6-0.1c0,0,0.1,0,0.1,0s0,0.1,0,0.1         c-0.1,0.1-0.4,0.2-0.6,0.3c-0.1,0-0.2,0-0.3,0c0.2,0.5,0.4,0.9,0.4,1c0.2,0.1,0.4,0.1,0.7,0.1c0.2,0,0.5,0,0.7-0.1         c-0.1,0.4-0.2,0.7-0.4,1c0,0-0.5,0-0.5,0c-0.3,0-0.5,0.2-0.5,0.5h1.6c0,0,0,0,0,0c0.3-0.5,0.5-1,0.6-1.6         c0-0.3,0.2-0.5,0.5-0.5c0-0.1-0.1-0.2-0.1-0.2c-0.1,0-0.3,0-0.4,0.1c-0.1,0-0.3,0.1-0.4,0.1c-0.2,0-0.5-0.1-0.7-0.1         c-0.1-0.2-0.1-0.4-0.1-0.6c0-0.2,0-0.4,0.1-0.6l0,0c0,0,0-0.1,0-0.1c0.1,0,0.3,0,0.4,0c0.9,0,1.7-0.8,1.7-1.7         c0-0.3-0.1-0.5-0.2-0.7l-0.1-0.3c-0.2-0.5-0.4-1-0.3-1.5c0-0.5,0.2-1,0.5-1.4c0,0,0,0,0,0c0,0,0,0,0,0c0.1,0,0.2-0.1,0.3-0.2         c0.2-0.2,0.3-0.4,0.4-0.7c0,0,0-0.1,0-0.1c0,0,0,0,0-0.1c0-0.1,0-0.1,0-0.2c0,0-0.1,0.1-0.1,0.1c-0.1,0-0.1,0.1-0.2,0.1         c-0.1,0-0.1,0.1-0.2,0.1c-0.1,0.1-0.1,0.1-0.2,0.2c-0.1,0.1-0.1,0.1-0.1,0.2c0,0,0,0,0,0c0,0,0,0,0,0l0,0c0,0,0,0,0,0         c0,0,0,0,0,0c0,0,0,0,0,0.1c0,0,0,0,0,0c-0.3,0.5-0.5,1-0.6,1.6c0,0.6,0.1,1.2,0.4,1.7l0.1,0.3c0.1,0.2,0.1,0.4,0.1,0.6         c0,0.7-0.6,1.3-1.3,1.3c0,0,0,0,0,0c-0.4,0-0.7-0.2-0.9-0.5c0-0.1-0.1-0.1-0.1-0.2c-0.3-0.4-0.4-0.8-0.4-1.3l0,0v0         c0.2,0.2,0.4,0.3,0.5,0.3c0,0,0.1,0,0,0c-0.1-0.2-0.1-0.6-0.1-0.8c0-0.2,0.1-0.3,0.2-0.5c0,0,0,0.1,0.1,0.3c0,0,0.1,0,0.1,0         c0-0.3,0.1-0.5,0.2-0.7c0.1-0.1,0.1-0.1,0.1-0.1c0-0.1,0.1-0.2,0.1-0.2c0.1-0.1,0.1-0.2,0.1-0.2l0,0c0,0,0,0,0,0c0,0,0,0,0,0         c0,0,0,0,0,0c0,0,0,0,0,0c0,0,0,0,0,0c0,0,0,0,0,0c0,0,0,0,0,0c0,0,0,0,0,0c0,0,0,0,0,0c0,0,0,0,0,0c0,0,0,0,0,0c0,0,0,0,0,0         c0,0,0,0,0,0c0,0,0,0,0,0c0,0,0,0,0,0c0,0,0,0,0,0c0,0,0,0,0,0c0,0,0,0,0,0c0,0,0,0,0,0c0,0,0,0,0,0c0,0,0,0,0,0c0,0,0,0,0,0         c0,0,0,0,0,0c0,0,0,0,0,0c0,0,0,0,0,0c0,0,0,0,0,0c0,0,0,0,0,0c0,0,0,0,0,0c0,0,0,0,0,0c0,0,0,0,0,0c0,0,0,0,0,0         c0,0,0,0,0-0.1c0-0.7-0.3-1.3-0.8-1.7c0,0,0.1,0,0.1,0c0,0,0.1,0,0-0.1c-0.4-0.3-1-0.5-1.6-0.5c0,0-0.1,0-0.1,0         c0,0-0.1,0-0.1,0.1l-0.1,0.2c0,0-0.1,0-0.1,0c-0.2,0-0.3,0.1-0.4,0.3l-0.6,0.3c-0.1,0-0.1,0.1-0.1,0.1c0,0,0,0.1,0,0.1         c0,0.1,0.1,0.5,0.2,0.5c0,0,0.1,0,0.2-0.1l0,0l0,0c0,0,0,0,0,0l0,0c0.2,0,0.4-0.1,0.5,0c0,0,0.1,0.3,0,0.4c0,0-0.1,0-0.2,0         l-0.1,0c0,0-0.1,0-0.1,0c0,0-0.1,0.3,0.1,0.4c0.1,0,0.3-0.1,0.4-0.1c0,0,0.2,0,0.2,0c0,0,0.1,0,0.1,0c0.2,0,0.4-0.1,0.7-0.2         c0,0-0.1,0.2-0.5,0.3c0,0-0.2,0.1-0.3,0.1c0,0-0.1,0-0.1,0c-0.3,0.1-0.5,0.3-0.7,0.5c-0.1-0.1-1.9-0.9-1.9-0.9l0,0V92         c0-0.2-0.1-0.4-0.3-0.5c-0.1,0-0.1-0.1-0.2-0.1v0v1.3l1.6,1.1l0.6-0.2c0,0,0.1,0,0.1,0c0,0.1,0,0.1,0,0.1L402.2,94.7z"/>
							<path class="st1" d="M394.2,99.7c-0.2,0.1-0.4,0.1-0.7,0.1c-0.2,0-0.5,0-0.7-0.1c0.1,0.4,0.2,0.7,0.4,1c0,0,0.5,0,0.5,0         c0.3,0,0.5,0.2,0.5,0.5h-1.6c0,0,0,0,0,0c-0.3-0.5-0.5-1-0.6-1.6c0-0.3-0.2-0.5-0.5-0.5c0-0.1,0.1-0.2,0.1-0.2         c0.1,0,0.3,0,0.4,0.1c0.1,0,0.3,0.1,0.4,0.1c0.2,0,0.5-0.1,0.7-0.1c0.1-0.2,0.1-0.4,0.1-0.6c0-0.2,0-0.4-0.1-0.6l0,0         c0,0,0-0.1,0-0.1c-0.1,0-0.3,0-0.4,0c-0.9,0-1.7-0.8-1.7-1.7c0-0.3,0.1-0.5,0.2-0.7l0.1-0.3c0.2-0.5,0.4-1,0.3-1.5         c0-0.5-0.2-1-0.5-1.4c0,0,0,0,0,0c0,0,0,0,0,0c-0.1,0-0.2-0.1-0.3-0.2c-0.2-0.2-0.3-0.4-0.4-0.7c0,0,0-0.1,0-0.1         c0,0,0,0,0-0.1c0-0.1,0-0.1,0-0.2c0,0,0.1,0.1,0.1,0.1c0.1,0,0.1,0.1,0.2,0.1c0.1,0,0.1,0.1,0.2,0.1c0.1,0.1,0.1,0.1,0.2,0.2         c0.1,0.1,0.1,0.1,0.1,0.2c0,0,0,0,0,0c0,0,0,0,0,0l0,0c0,0,0,0,0,0c0,0,0,0,0,0c0,0,0,0,0,0.1c0,0,0,0,0,0         c0.3,0.5,0.5,1,0.6,1.6c0,0.6-0.1,1.2-0.4,1.7l-0.1,0.3c-0.1,0.2-0.1,0.4-0.1,0.6c0,0.7,0.6,1.3,1.3,1.3c0,0,0,0,0,0         c0.4,0,0.7-0.2,0.9-0.5c0-0.1,0.1-0.1,0.1-0.2c0.3-0.4,0.4-0.8,0.4-1.3l0,0v0c-0.2,0.2-0.4,0.3-0.5,0.3c0,0-0.1,0,0,0         c0.1-0.2,0.1-0.6,0.1-0.8c0-0.2-0.1-0.3-0.2-0.5c0,0,0,0.1-0.1,0.3c0,0-0.1,0-0.1,0c0-0.3-0.1-0.5-0.2-0.7         c-0.1-0.1-0.1-0.1-0.1-0.1c0-0.1-0.1-0.2-0.1-0.2c-0.1-0.1-0.1-0.2-0.1-0.2l0,0c0,0,0,0,0,0c0,0,0,0,0,0c0,0,0,0,0,0         c0,0,0,0,0,0c0,0,0,0,0,0c0,0,0,0,0,0c0,0,0,0,0,0c0,0,0,0,0,0c0,0,0,0,0,0c0,0,0,0,0,0c0,0,0,0,0,0c0,0,0,0,0,0c0,0,0,0,0,0         c0,0,0,0,0,0c0,0,0,0,0,0c0,0,0,0,0,0c0,0,0,0,0,0c0,0,0,0,0,0c0,0,0,0,0,0c0,0,0,0,0,0c0,0,0,0,0,0c0,0,0,0,0,0c0,0,0,0,0,0         c0,0,0,0,0,0c0,0,0,0,0,0c0,0,0,0,0,0c0,0,0,0,0,0c0,0,0,0,0,0c0,0,0,0,0,0c0,0,0,0,0,0c0,0,0,0,0,0c0,0,0,0,0-0.1         c0-0.7,0.3-1.3,0.8-1.7c0,0-0.1,0-0.1,0c0,0-0.1,0,0-0.1c0.4-0.3,1-0.5,1.6-0.5c0,0,0.1,0,0.1,0c0,0,0.1,0,0.1,0.1l0.1,0.2         c0,0,0.1,0,0.1,0c0.2,0,0.3,0.1,0.4,0.3l0.6,0.3c0.1,0,0.1,0.1,0.1,0.1c0,0,0,0.1,0,0.1c0,0.1-0.1,0.5-0.2,0.5         c0,0-0.1,0-0.2-0.1l0,0c0,0,0,0,0,0c0,0,0,0,0,0l0,0c-0.2,0-0.4-0.1-0.5,0c0,0-0.1,0.3,0,0.4c0,0,0.1,0,0.2,0l0.1,0         c0,0,0.1,0,0.1,0c0,0,0.1,0.3-0.1,0.4c-0.1,0-0.3-0.1-0.4-0.1c0,0-0.2,0-0.2,0c0,0-0.1,0-0.1,0c-0.2,0-0.4-0.1-0.7-0.2         c0,0,0.1,0.2,0.5,0.3c0,0,0.2,0.1,0.3,0.1c0,0,0.1,0,0.1,0c0.3,0.1,0.5,0.3,0.7,0.5c0.1-0.1,1.9-0.9,1.9-0.9l0,0V92         c0-0.2,0.1-0.4,0.3-0.5c0.1,0,0.1-0.1,0.2-0.1v0v1.3l-1.5,1.1l-0.7-0.2c0,0-0.1,0-0.1,0c0,0.1,0,0.1,0,0.1l1.8,0.9v-0.2         c0-0.3,0.2-0.5,0.5-0.5v0.1v1.5l-1.9-0.6c0,0.4-0.3,0.8-0.5,1.1c-0.2,0.2-0.4,0.5-0.5,0.8c0.5,0.2,1.3,0.6,1.4,0.6         c0.1,0.2,0.1,0.4,0.1,0.7c0,0.2,0,0.5-0.1,0.7c0.4-0.1,0.7-0.2,1-0.4c0,0,0-0.5,0-0.5c0-0.3,0.2-0.5,0.5-0.5V99c0,0,0,0,0,0         c-0.5,0.3-1,0.5-1.6,0.6c-0.3,0-0.5,0.2-0.5,0.5c-0.1,0-0.2-0.1-0.2-0.1c0-0.1,0-0.3,0.1-0.4c0-0.1,0.1-0.3,0.1-0.4         c0-0.2-0.1-0.5-0.1-0.7c-0.1,0-0.2,0-0.3-0.1c-0.1,0-0.3,0-0.4,0c-0.1,0-0.2,0-0.2,0l0.1-0.8c0,0,0-0.1-0.1-0.1         s-0.1,0.1-0.1,0.1L394.2,99.7z"/>
						</g>
						<path class="st1" d="M405.5,81.4c-0.7-1.3-2-2.2-3.5-2.2c-0.6-0.3-1.2-0.5-1.9-0.5s-1.3,0.2-1.9,0.5c-1.5,0.1-2.9,0.9-3.5,2.2        c-1,0.5-1.7,1.6-1.7,2.9c0,1,0.4,1.9,1.1,2.4c0.5,1.3,1.7,2.3,3.1,2.5c1.2,0.2,2.2,1.3,2.2,2.6l0,7c0,0.3-0.2,1.7-1.9,2        c-0.2,0-0.4,0-0.4,0c-0.3,0-0.6,0.2-0.6,0.6h1.7h0.8h0.4h1.4v0h1.1h1.7c0-0.3-0.2-0.6-0.6-0.6c0,0-0.3,0-0.4,0        c-1.8-0.2-1.9-1.9-1.9-2l0-7c0-1.2,0.9-2.3,2.1-2.5l0.1,0c1.4-0.2,2.6-1.2,3.2-2.5c0.7-0.6,1.1-1.5,1.1-2.4        C407.3,83,406.6,81.9,405.5,81.4z M405.4,85.9l-0.2,0.2l-0.1,0.2c-0.3,0.9-1,1.5-1.9,1.7l0,0c0,0-0.7,0.2-0.9,0.3l0,0        c-0.1,0.1-0.1,0.1-0.2,0.2c0,0,0,0,0,0c0,0-0.1,0.1-0.1,0.1c-0.1,0-0.1,0.1-0.2,0.1c-0.5,0.3-1.1,0.5-1.7,0.5        c-0.6,0-1.2-0.2-1.7-0.5c-0.1,0-0.1-0.1-0.2-0.1c-0.1,0-0.1-0.1-0.1-0.1c0,0,0,0,0,0c-0.1,0-0.1-0.1-0.2-0.2l0,0        c-0.2-0.1-0.9-0.3-0.9-0.3l0,0c-0.8-0.2-1.5-0.9-1.9-1.7L395,86l-0.2-0.2c-0.5-0.4-0.7-1-0.7-1.6c0-0.8,0.4-1.5,1.1-1.9        l0.3-0.2l0.2-0.3c0.5-1,1.5-1.6,2.6-1.6l0.3,0l0.2-0.1c0.4-0.2,0.9-0.3,1.4-0.3c0.5,0,1,0.1,1.4,0.3l0.2,0.1l0.3,0        c1.1,0,2.1,0.7,2.6,1.6l0.2,0.3l0.3,0.2c0.7,0.4,1.1,1.1,1.1,1.9C406.2,84.9,405.9,85.5,405.4,85.9z"/>
					</g>
					<path class="st1" d="M407,77.2c-0.8,0.4-1.6,0.8-2.4,1h7.1v15.4c0,0.9-0.1,1.8-0.3,2.7c-0.2,1-0.6,1.9-1.1,2.8       c-0.1,0.1-0.1,0.2-0.2,0.3c-2.1,3.6-5.9,5.8-10,5.8c-4.1,0-8-2.2-10-5.8c-0.1-0.1-0.1-0.2-0.2-0.3c-0.5-0.9-0.8-1.8-1.1-2.8       c-0.2-0.9-0.3-1.8-0.3-2.7V78.2h7.2c-1.1-0.3-1.9-0.7-2.5-1h-5.8v16.4c0,1,0.1,2,0.3,2.9c0.3,1.1,0.6,2.1,1.2,3.1       c0.1,0.1,0.1,0.2,0.2,0.3c2.2,3.8,6.2,6.3,10.9,6.3c4.7,0,8.7-2.5,10.9-6.3c0.1-0.1,0.1-0.2,0.2-0.3c0.5-1,0.9-2,1.2-3.1       c0.2-0.9,0.3-1.9,0.3-2.9V77.2H407z"/>
					<polygon class="st1" points="414.6,77.5 414.4,77.2 413.9,77.7 413.4,77.2 413.2,77.5 413.6,78 413.2,78.4 413.4,78.7        413.9,78.2 414.4,78.7 414.6,78.4 414.1,78      "/>
					<polygon class="st1" points="387,77.5 386.8,77.2 386.3,77.7 385.8,77.2 385.5,77.5 386,78 385.5,78.4 385.8,78.7 386.3,78.2        386.8,78.7 387,78.4 386.5,78      "/>
					<polygon class="st1" points="414.6,89.3 414.4,89 413.9,89.5 413.4,89 413.2,89.3 413.6,89.8 413.2,90.3 413.4,90.5 413.9,90        414.4,90.5 414.6,90.3 414.1,89.8      "/>
					<polygon class="st1" points="387,89.3 386.8,89 386.3,89.5 385.8,89 385.5,89.3 386,89.8 385.5,90.3 385.8,90.5 386.3,90        386.8,90.5 387,90.3 386.5,89.8      "/>
					<polygon class="st1" points="389.8,101.6 389.5,101.3 389,101.8 388.6,101.3 388.3,101.6 388.8,102.1 388.3,102.5 388.6,102.8        389,102.3 389.5,102.8 389.8,102.5 389.3,102.1      "/>
					<polygon class="st1" points="411.9,101.6 411.7,101.3 411.2,101.8 410.7,101.3 410.5,101.6 410.9,102.1 410.5,102.5        410.7,102.8 411.2,102.3 411.7,102.8 411.9,102.5 411.4,102.1      "/>
					<polygon class="st1" points="400.8,107 400.6,106.7 400.1,107.2 399.6,106.7 399.4,107 399.8,107.4 399.4,107.9 399.6,108.2        400.1,107.7 400.6,108.2 400.8,107.9 400.4,107.4      "/>
				</g>
			</g>
		</g>
	</g>
	<g>
		<path class="st0" d="M102.4,95.4c0.4,0,0.5,0.2,0.5,0.6v2.8c0,0.4-0.2,0.6-0.5,0.6h-6.3v15.9c0,0.4-0.2,0.6-0.6,0.6h-3.4    c-0.4,0-0.5-0.2-0.5-0.6V99.3h-6.3c-0.4,0-0.6-0.2-0.6-0.6V96c0-0.4,0.2-0.6,0.6-0.6H102.4z"/>
		<path class="st0" d="M115.8,101.4c0.3,0.1,0.5,0.3,0.4,0.6l-0.4,2.8c-0.1,0.3-0.3,0.5-0.6,0.4c-0.5-0.1-1-0.1-1.6-0.1    c-1.1,0-2,0.3-2.8,1c-0.7,0.7-1.1,1.6-1.1,2.8v6.2c0,0.4-0.2,0.6-0.6,0.6H106c-0.4,0-0.6-0.2-0.6-0.6V106c0-0.8-0.4-1.1-1.1-1.1    c-0.1,0-0.3,0-0.6,0.1c-0.4,0-0.6-0.2-0.6-0.5v-2.4c0-0.3,0.1-0.5,0.4-0.6c0.7-0.2,1.4-0.3,2.1-0.3c1.7,0,2.9,0.7,3.5,2    c1.2-1.3,2.8-2,4.7-2C114.6,101.2,115.3,101.3,115.8,101.4z"/>
		<path class="st0" d="M136.4,115.2c0,0.3-0.1,0.5-0.5,0.6c-0.8,0.2-1.5,0.3-2.2,0.3c-1.8,0-3-0.6-3.6-1.8c-1.4,1.2-3,1.8-4.9,1.8    c-2.2,0-4.1-0.7-5.5-2.1c-1.4-1.4-2.1-3.2-2.1-5.4c0-2.2,0.7-4,2.1-5.4c1.4-1.4,3.2-2.1,5.5-2.1c1.6,0,3,0.4,4.1,1.3v-0.3    c0-0.4,0.2-0.5,0.6-0.5h3.2c0.4,0,0.6,0.2,0.6,0.5v9.1c0,0.8,0.3,1.1,1,1.1c0.3,0,0.6,0,0.9-0.1c0.4,0,0.6,0.1,0.6,0.5    L136.4,115.2z M125.6,112.8c1.1,0,2-0.4,2.6-1.1c0.7-0.8,1-1.7,1-2.9c0-1.2-0.3-2.2-1-3c-0.7-0.8-1.6-1.1-2.6-1.1    c-1.1,0-2,0.4-2.7,1.1c-0.7,0.8-1,1.8-1,3c0,1.2,0.3,2.2,1,2.9C123.6,112.4,124.5,112.8,125.6,112.8z"/>
		<path class="st0" d="M148.9,101.2c1.9,0,3.4,0.6,4.6,1.8c1.2,1.2,1.7,2.7,1.7,4.6v7.6c0,0.4-0.2,0.6-0.6,0.6h-3.2    c-0.4,0-0.6-0.2-0.6-0.6v-7c0-1-0.3-1.8-0.8-2.4s-1.3-0.9-2.2-0.9c-1,0-1.7,0.3-2.3,0.9c-0.6,0.6-0.9,1.3-0.9,2.3v7.1    c0,0.4-0.2,0.6-0.6,0.6h-3.2c-0.4,0-0.6-0.2-0.6-0.6V106c0-0.8-0.4-1.1-1.1-1.1c-0.1,0-0.3,0-0.6,0.1c-0.4,0-0.6-0.2-0.6-0.5v-2.4    c0-0.3,0.1-0.5,0.4-0.6c0.6-0.2,1.3-0.3,2.1-0.3c1.7,0,2.8,0.6,3.5,1.8C145,101.8,146.7,101.2,148.9,101.2z"/>
		<path class="st0" d="M164.7,116.2c-2,0-3.7-0.4-5-1.2c-1.3-0.8-2-1.9-2.2-3.3c-0.1-0.4,0.1-0.6,0.6-0.6l2.8,0    c0.2,0,0.5,0.1,0.6,0.4c0.4,1,1.5,1.6,3.2,1.6c0.7,0,1.3-0.1,1.7-0.3c0.4-0.2,0.7-0.5,0.7-0.9c0-0.5-0.3-0.9-0.9-1.1    c-0.6-0.2-1.4-0.4-2.3-0.5c-0.9-0.1-1.8-0.3-2.7-0.5c-0.9-0.2-1.6-0.6-2.3-1.3c-0.6-0.7-0.9-1.5-0.9-2.7c0-1.4,0.6-2.5,1.8-3.3    c1.2-0.8,2.7-1.2,4.7-1.2c1.8,0,3.3,0.4,4.6,1.1c1.2,0.8,1.9,1.8,2.1,3c0.1,0.4-0.1,0.6-0.5,0.6h-2.9c-0.3,0-0.4-0.1-0.6-0.3    c-0.2-0.4-0.5-0.8-1-1c-0.5-0.3-1-0.4-1.7-0.4c-0.7,0-1.2,0.1-1.6,0.3c-0.4,0.2-0.6,0.5-0.6,0.9c0,0.5,0.3,0.9,0.9,1.2    c0.6,0.3,1.4,0.4,2.3,0.6c0.9,0.1,1.8,0.3,2.7,0.5c0.9,0.2,1.6,0.6,2.3,1.3s0.9,1.5,0.9,2.6c0,1.4-0.6,2.5-1.8,3.4    C168.4,115.7,166.8,116.2,164.7,116.2z"/>
		<path class="st0" d="M184,101.2c2.3,0,4.1,0.7,5.5,2.1s2.1,3.2,2.1,5.4c0,2.2-0.7,4-2.1,5.4s-3.3,2.1-5.5,2.1    c-1.5,0-2.9-0.4-4-1.2v7c0,0.3-0.2,0.5-0.6,0.5h-3.2c-0.4,0-0.6-0.2-0.6-0.5V106c0-0.8-0.4-1.1-1.1-1.1c-0.1,0-0.3,0-0.6,0.1    c-0.4,0-0.6-0.2-0.6-0.5v-2.4c0-0.3,0.1-0.5,0.4-0.6c0.6-0.2,1.3-0.3,2.1-0.3c1.7,0,2.9,0.6,3.5,1.9    C180.5,101.8,182.1,101.2,184,101.2z M181,111.6c0.7,0.8,1.6,1.1,2.6,1.1c1.1,0,2-0.4,2.7-1.1c0.7-0.8,1.1-1.7,1.1-2.9    c0-1.2-0.4-2.2-1.1-3c-0.7-0.8-1.6-1.1-2.7-1.1c-1.1,0-2,0.4-2.6,1.1c-0.7,0.8-1,1.8-1,3C180,109.9,180.3,110.9,181,111.6z"/>
		<path class="st0" d="M207.7,114.1c-1.5,1.4-3.4,2.1-5.8,2.1c-2.4,0-4.3-0.7-5.8-2.1s-2.2-3.2-2.2-5.4c0-2.3,0.7-4.1,2.2-5.4    s3.4-2.1,5.8-2.1c2.4,0,4.3,0.7,5.8,2.1c1.5,1.4,2.2,3.2,2.2,5.4C209.9,110.9,209.1,112.7,207.7,114.1z M199.1,111.5    c0.7,0.7,1.6,1.1,2.8,1.1c1.1,0,2.1-0.4,2.8-1.1c0.7-0.7,1.1-1.6,1.1-2.8c0-1.2-0.4-2.1-1.1-2.8c-0.7-0.7-1.6-1.1-2.8-1.1    c-1.1,0-2.1,0.4-2.8,1.1c-0.7,0.7-1.1,1.7-1.1,2.8C198.1,109.9,198.4,110.8,199.1,111.5z"/>
		<path class="st0" d="M224.5,101.4c0.3,0.1,0.5,0.3,0.4,0.6l-0.4,2.8c-0.1,0.3-0.3,0.5-0.6,0.4c-0.5-0.1-1-0.1-1.6-0.1    c-1.1,0-2,0.3-2.8,1c-0.7,0.7-1.1,1.6-1.1,2.8v6.2c0,0.4-0.2,0.6-0.6,0.6h-3.2c-0.4,0-0.6-0.2-0.6-0.6V106c0-0.8-0.4-1.1-1.1-1.1    c-0.1,0-0.3,0-0.6,0.1c-0.4,0-0.6-0.2-0.6-0.5v-2.4c0-0.3,0.1-0.5,0.4-0.6c0.7-0.2,1.4-0.3,2.1-0.3c1.7,0,2.9,0.7,3.5,2    c1.2-1.3,2.8-2,4.7-2C223.3,101.2,223.9,101.3,224.5,101.4z"/>
		<path class="st0" d="M235.1,116.2c-1.9,0-3.4-0.5-4.5-1.6s-1.6-2.5-1.6-4.4v-5h-2.7c-0.4,0-0.5-0.2-0.5-0.6v-2.4    c0-0.4,0.2-0.5,0.5-0.5h2.7V98c0-0.4,0.2-0.6,0.5-0.6h3.2c0.4,0,0.5,0.2,0.5,0.6v3.7h4.5c0.4,0,0.5,0.2,0.5,0.5v2.4    c0,0.4-0.2,0.6-0.5,0.6h-4.5v4.9c0,0.7,0.2,1.3,0.7,1.7c0.4,0.4,1,0.6,1.8,0.6c0.8,0,1.5-0.1,2.2-0.3c0.4-0.1,0.6,0.1,0.6,0.4    l0.4,2.5c0,0.3-0.1,0.5-0.4,0.6C237.3,116,236.1,116.2,235.1,116.2z"/>
		<path class="st0" d="M248.7,116.2c-2.4,0-4.3-0.7-5.8-2.1c-1.5-1.4-2.2-3.2-2.2-5.4c0-2.3,0.7-4.1,2.1-5.4    c1.4-1.4,3.3-2.1,5.6-2.1c2.3,0,4.2,0.7,5.5,2c1.4,1.4,2,3.1,2,5.4c0,0.1,0,0.3,0,0.5c0,0.2,0,0.4,0,0.5c-0.1,0.3-0.3,0.5-0.6,0.5    H245c0.2,0.9,0.7,1.6,1.4,2.1c0.7,0.5,1.5,0.8,2.4,0.8c1.1,0,1.9-0.3,2.4-0.9c0.3-0.2,0.5-0.3,0.7-0.3h3.2c0.2,0,0.4,0.1,0.4,0.2    c0.1,0.1,0.1,0.2,0,0.4c-0.5,1.2-1.4,2.1-2.6,2.8C251.8,115.8,250.4,116.2,248.7,116.2z M245,107.5h6.9c0-0.9-0.4-1.6-1-2.2    c-0.6-0.6-1.4-0.9-2.3-0.9c-0.9,0-1.8,0.3-2.4,0.9C245.5,105.8,245.1,106.6,245,107.5z"/>
	</g>
	<path class="st0" d="M27.3,138.5c-0.7,0-1.4,0-2.1-0.1c-12.4-1-22.2-12-22.2-24.9V91c0-10.3,8.4-18.6,18.6-18.6h30.3v6H21.7   C14.7,78.4,9,84,9,91v22.5c0,9.8,7.3,18.2,16.7,18.9c5.1,0.4,10-1.2,13.8-4.7c3.8-3.5,6-8.5,6-13.7V97.6h6V114   c0,6.8-2.9,13.4-7.9,18.1C39,136.2,33.3,138.5,27.3,138.5"/>
	<path class="st0" d="M27.6,125c-0.2,0-0.3,0-0.5,0c-6.1-0.3-10.9-5.4-10.9-11.6V90.5c0-3.1,2.5-5.5,5.5-5.5h30.2v6H22.1v22.4   c0,3,2.3,5.6,5.2,5.7c1.5,0.1,2.9-0.5,4-1.5c1.1-1.1,1.7-2.5,1.7-4V97.7h6v15.8c0,3.1-1.3,6.2-3.5,8.3   C33.3,123.9,30.5,125,27.6,125"/>
</g>
</svg>