<svg xmlns="http://www.w3.org/2000/svg" width="288.747" height="118.657" viewBox="0 0 288.747 118.657"><defs><style>.a{fill:#7b868c;}.b{fill:#00852a;}</style></defs><g transform="translate(-2264.05 -1066.307)"><g transform="translate(2318.116 1066.307)"><g transform="translate(156.438)"><path class="a" d="M2363.556,1098.21a21.893,21.893,0,0,1-2.283-1.118,3.059,3.059,0,0,1-1.44-2.7q0-10.231,0-20.467a2.847,2.847,0,0,1,.805-1.954,5.136,5.136,0,0,1,3.933-1.647c.914-.019,1.831-.025,2.743.007a.667.667,0,0,0,.789-.517c.254-.756.581-1.486.883-2.224a1.912,1.912,0,0,1,1.9-1.282q3.143,0,6.287,0a1.926,1.926,0,0,1,1.9,1.282c.313.733.633,1.469.886,2.222.143.427.367.52.787.522,1.255,0,2.516,0,3.764.1a4.172,4.172,0,0,1,3.615,2.889,4.674,4.674,0,0,1,.1,1.13c.007,6.479-.039,12.959.028,19.437a3.852,3.852,0,0,1-2.955,3.944c-.219.068-.438.122-.675.186a2.445,2.445,0,0,0,.591,2.23c2.051,2.172,4.007,4.434,6.052,6.719-.2.02-.332.048-.469.048-.742,0-1.489-.036-2.228.014a1.917,1.917,0,0,1-1.845-.722,1.059,1.059,0,0,0-.758-.247c-4.763-.016-9.528-.012-14.293-.012-3.143,0-6.288.01-9.433-.009a1.211,1.211,0,0,0-1.141.472,1.27,1.27,0,0,1-1.231.518c-.988-.039-1.979-.012-3.047-.012a3.017,3.017,0,0,1,.224-.338c2.06-2.3,4.155-4.566,6.157-6.911C2363.534,1099.381,2363.466,1098.651,2363.556,1098.21ZM2374,1083.977q5.115,0,10.229,0a5.913,5.913,0,0,0,.8-.045,1.184,1.184,0,0,0,1.107-1.228q.019-3.513,0-7.027a1.228,1.228,0,0,0-1.143-1.264,5.2,5.2,0,0,0-.626-.039h-20.687a4.787,4.787,0,0,0-.627.041,1.206,1.206,0,0,0-1.127,1.212q-.018,3.543,0,7.087a1.176,1.176,0,0,0,1.11,1.221,6.293,6.293,0,0,0,.8.043Q2368.92,1083.978,2374,1083.977Zm-10.479,19.725h21.007c-.7-.762-1.3-1.443-1.931-2.1a.773.773,0,0,0-.51-.163q-8.057-.01-16.111,0a.835.835,0,0,0-.552.2C2364.807,1102.279,2364.215,1102.948,2363.524,1103.7Zm19.351-13.378a2.689,2.689,0,0,0-.025,5.378,2.689,2.689,0,1,0,.025-5.378Zm-15.012,2.755a2.632,2.632,0,0,0-2.644-2.755,2.689,2.689,0,1,0-.068,5.378A2.622,2.622,0,0,0,2367.864,1093.078Zm6.229-21.18c-2.151,0-4.3,0-6.454,0-.342,0-.663-.016-.694.445a.7.7,0,0,0,.6.829,3.806,3.806,0,0,0,.738.052q5.737.006,11.479,0a4.062,4.062,0,0,0,.74-.052.7.7,0,0,0,.613-.819c-.026-.452-.334-.456-.686-.456C2378.316,1071.905,2376.2,1071.9,2374.092,1071.9Zm5.87,26.129H2368.12v1.273h11.843Zm-4.422-28.972a1.649,1.649,0,0,0-1.473-1.6,1.631,1.631,0,0,0-1.55,1.521,1.512,1.512,0,1,0,3.023.081Z" transform="translate(-2356.821 -1066.307)"/></g><g transform="translate(51.159)"><path class="a" d="M2367.8,1076.153a23.394,23.394,0,0,0-2.071-4.021,2.5,2.5,0,0,0-2.371-1.169c-2.453.007-4.938.007-7.41.009l-3.192-3.143a5.306,5.306,0,0,0-3.722-1.522h-7.069a3.823,3.823,0,0,0-3.31,1.9l-1.6,2.766h-2.536v30.685h1.708v.007h1.088c4.306,0,7.479,0,11.788-.014a1.048,1.048,0,0,1,1.191.824,6.816,6.816,0,0,0,8.221,4.477,6.947,6.947,0,0,0,4.648-4.481,1.021,1.021,0,0,1,1.188-.819c1.305.043,2.612-.027,3.915.025a1.661,1.661,0,0,0,1.867-1.316,15.154,15.154,0,0,0,.651-3.17A55.334,55.334,0,0,0,2367.8,1076.153Zm-17.37,8.1h-13.519V1073.3h13.519Zm6.3,19.741a3.631,3.631,0,0,1-3.694-3.624,3.7,3.7,0,0,1,3.727-3.805,3.644,3.644,0,0,1,3.623,3.7A3.586,3.586,0,0,1,2356.728,1104Zm10.569-11.1c-1.18-.011-2.361.03-3.538-.018a2.12,2.12,0,0,1-2.058-1.7,6.926,6.926,0,0,0-.881-2.017,12.01,12.01,0,0,0-7.322-4.724c-.588-.129-.754-.32-.75-.894.025-3.227.01-6.455.013-9.682,0-.179.029-.357.05-.629h1.048c2.948,0,5.9.041,8.842-.025a1.7,1.7,0,0,1,1.752,1.053,5.078,5.078,0,0,1,.429.926c.806,2.977,1.725,5.934,2.342,8.953.522,2.54.684,5.151,1.008,7.731C2368.325,1092.6,2368.007,1092.91,2367.3,1092.9Z" transform="translate(-2279.856 -1066.307)"/><path class="a" d="M2340.4,1068.365h-25.777c-2.9,0-4.2,1.307-4.2,4.2v23.946c0,1.818.717,2.536,2.525,2.539,2.08,0,4.165.021,6.245-.011a1.033,1.033,0,0,1,1.2.817,6.864,6.864,0,0,0,8.23,4.484,6.989,6.989,0,0,0,4.69-4.554.928.928,0,0,1,1.056-.744q3.256.007,6.513.012h.25v-.007h1.665v-30.685Zm-27.089,13.354c-.617,0-.6-.381-.595-.806,0-2.92-.011-5.838.008-8.756.006-1.189.384-1.527,1.586-1.53q4.8,0,9.6,0c.267,0,.535.037.805.054v10.9c-.112.049-.168.1-.223.1C2320.761,1081.7,2317.035,1081.7,2313.31,1081.719Zm13.546,19.666a3.675,3.675,0,0,1-3.73-3.6,3.776,3.776,0,0,1,3.713-3.832,3.7,3.7,0,0,1,3.7,3.626A3.646,3.646,0,0,1,2326.856,1101.385Zm13.543-19.725h-13.292v-10.974H2340.4Z" transform="translate(-2310.423 -1063.695)"/><path class="a" d="M2326.783,1068.866a1.125,1.125,0,0,0-1.124,1.123v26.3a1.124,1.124,0,0,0,2.247,0v-26.3A1.125,1.125,0,0,0,2326.783,1068.866Z" transform="translate(-2291.088 -1063.06)"/><path class="a" d="M2328.5,1068.866a1.122,1.122,0,0,0-1.123,1.123v26.3a1.123,1.123,0,1,0,2.246,0v-26.3A1.125,1.125,0,0,0,2328.5,1068.866Z" transform="translate(-2288.901 -1063.06)"/><path class="a" d="M2330.228,1068.866a1.123,1.123,0,0,0-1.123,1.123v26.3a1.123,1.123,0,1,0,2.246,0v-26.3A1.124,1.124,0,0,0,2330.228,1068.866Z" transform="translate(-2286.715 -1063.06)"/><path class="a" d="M2331.95,1068.866a1.125,1.125,0,0,0-1.123,1.123v26.3a1.123,1.123,0,1,0,2.246,0v-26.3A1.124,1.124,0,0,0,2331.95,1068.866Z" transform="translate(-2284.53 -1063.06)"/><path class="a" d="M2333.673,1068.866a1.122,1.122,0,0,0-1.122,1.123v26.3a1.123,1.123,0,1,0,2.246,0v-26.3A1.125,1.125,0,0,0,2333.673,1068.866Z" transform="translate(-2282.342 -1063.06)"/></g><g transform="translate(0 1.568)"><path class="a" d="M2304.794,1071.491h-1.313v7.563h1.313a1.334,1.334,0,0,0,1.316-1.316V1072.7A1.315,1.315,0,0,0,2304.794,1071.491Z" transform="translate(-2268.075 -1061.297)"/><path class="a" d="M2289.193,1071.491h1.2v7.563h-1.2a1.268,1.268,0,0,1-1.316-1.316V1072.7A1.244,1.244,0,0,1,2289.193,1071.491Z" transform="translate(-2287.877 -1061.297)"/><path class="a" d="M2319.991,1074.561v22.909a2.549,2.549,0,0,1-2.521,2.521v2.521a2.48,2.48,0,0,1-2.521,2.521h-2.521a2.481,2.481,0,0,1-2.522-2.521v-2.521h-10.192v2.521a2.48,2.48,0,0,1-2.521,2.521h-2.52a2.481,2.481,0,0,1-2.522-2.521v-2.521a2.649,2.649,0,0,1-2.632-2.521v-22.909a7.674,7.674,0,0,1,7.674-7.563h15.235A7.579,7.579,0,0,1,2319.991,1074.561Zm-22.8,20.388a2.648,2.648,0,0,0-2.52-2.63,2.576,2.576,0,0,0,0,5.151A2.627,2.627,0,0,0,2297.193,1094.949Zm20.277,0a2.521,2.521,0,1,0-2.521,2.521A2.574,2.574,0,0,0,2317.469,1094.949Zm0-20.388h-25.319V1089.8h25.319Zm-17.756-2.521h10.192v-2.521h-10.192Z" transform="translate(-2285.793 -1066.998)"/></g></g><g transform="translate(2264.05 1125.217)"><path class="a" d="M2265.676,1134.771q-1.626,0-1.626-1.567v-37.549q0-1.569,1.626-1.568h7.091a2.225,2.225,0,0,1,1.92.987l12.959,17.088,12.9-17.088a2.481,2.481,0,0,1,1.977-.987h7.091q1.684,0,1.686,1.568V1133.2q0,1.569-1.686,1.567h-9.532q-1.628,0-1.627-1.567v-17.148l-7.266,9.766a2.223,2.223,0,0,1-1.917.987h-3.2a2.477,2.477,0,0,1-1.978-.987l-7.266-9.823v17.2a1.386,1.386,0,0,1-1.567,1.567Z" transform="translate(-2264.05 -1089.962)"/><path class="b" d="M2293.6,1105.055a6.922,6.922,0,0,1-4.943-1.8,6.422,6.422,0,0,1,0-9.153,7.549,7.549,0,0,1,9.853,0,6.352,6.352,0,0,1,0,9.153A6.942,6.942,0,0,1,2293.6,1105.055Z" transform="translate(-2235.248 -1092.269)"/><path class="a" d="M2288.679,1128.108q-1.626,0-1.627-1.568v-25.69q0-1.511,1.627-1.511h9.07q1.622,0,1.624,1.511v25.69a1.412,1.412,0,0,1-1.624,1.568Z" transform="translate(-2234.859 -1083.298)"/><path class="b" d="M2302.308,1134.771q-1.63,0-1.629-1.567v-37.549q0-1.569,1.629-1.568H2319.4q8.482,0,13.335,4.186t4.856,11.507q0,7.321-4.913,11.565t-13.4,4.246h-5.813v7.613a1.386,1.386,0,0,1-1.567,1.567Zm11.157-19.353h4.942a6.482,6.482,0,0,0,4.5-1.541,5.239,5.239,0,0,0,1.714-4.1,5.084,5.084,0,0,0-1.714-4.01,6.555,6.555,0,0,0-4.5-1.511h-4.942Z" transform="translate(-2217.564 -1089.962)"/><path class="b" d="M2357.921,1127.392a1.483,1.483,0,0,1-1.277,1.8,23.91,23.91,0,0,1-5.346.64q-6.222-.058-8.661-3.37a15.216,15.216,0,0,1-9.938,3.37,14.57,14.57,0,0,1-10.928-4.3,17.091,17.091,0,0,1,0-22.407,14.617,14.617,0,0,1,10.928-4.273,11.9,11.9,0,0,1,8.312,2.848v-.231q0-1.511,1.627-1.511h8.6q1.569,0,1.567,1.511v15.575a4.033,4.033,0,0,0,.35,2.005,1.454,1.454,0,0,0,1.337.554,8.214,8.214,0,0,0,1.049-.057q1.568,0,1.743,1.333Zm-23.075-6.569a5.179,5.179,0,0,0,4.128-1.743,8.229,8.229,0,0,0,0-9.5,5.14,5.14,0,0,0-4.128-1.774,4.974,4.974,0,0,0-4.009,1.8,8.09,8.09,0,0,0,0,9.417A4.972,4.972,0,0,0,2334.846,1120.823Z" transform="translate(-2196.109 -1083.916)"/><path class="b" d="M2351.545,1129.831a21.4,21.4,0,0,1-10.694-2.412,9.335,9.335,0,0,1-5-6.54,1.167,1.167,0,0,1,.231-1.161,1.75,1.75,0,0,1,1.279-.406h7.613a2.884,2.884,0,0,1,1.861,1.046q1.159,1.453,4.651,1.452,2.964,0,2.963-1.452c0-.7-.6-1.193-1.8-1.481a35.961,35.961,0,0,0-4.331-.727,36.287,36.287,0,0,1-5.086-.96,8.349,8.349,0,0,1-4.359-2.821,8.664,8.664,0,0,1-1.8-5.754,8.192,8.192,0,0,1,3.953-7.089q3.95-2.671,10.344-2.676a20.012,20.012,0,0,1,10.2,2.356,9.394,9.394,0,0,1,4.851,6.305,1.229,1.229,0,0,1-.317,1.162,1.766,1.766,0,0,1-1.251.406h-7.5a2.1,2.1,0,0,1-1.745-.93q-.989-1.565-3.894-1.568-3.138,0-3.138,1.336,0,1.045,1.917,1.6a36.572,36.572,0,0,0,4.622.957,43.069,43.069,0,0,1,5.431,1.191,9.717,9.717,0,0,1,4.652,2.937,8.072,8.072,0,0,1,1.918,5.579,7.951,7.951,0,0,1-4.011,7.15Q2359.1,1129.828,2351.545,1129.831Z" transform="translate(-2172.996 -1083.916)"/><path class="b" d="M2390.914,1127.392a1.485,1.485,0,0,1-1.279,1.8,23.882,23.882,0,0,1-5.346.64q-6.224-.058-8.663-3.37a15.21,15.21,0,0,1-9.937,3.37,14.561,14.561,0,0,1-10.926-4.3,17.087,17.087,0,0,1,0-22.407,14.608,14.608,0,0,1,10.926-4.273A11.9,11.9,0,0,1,2374,1101.7v-.231q0-1.511,1.626-1.511h8.6q1.57,0,1.568,1.511v15.575a4.021,4.021,0,0,0,.349,2.005,1.456,1.456,0,0,0,1.339.554,8.19,8.19,0,0,0,1.046-.057q1.569,0,1.743,1.333Zm-23.076-6.569a5.175,5.175,0,0,0,4.126-1.743,8.224,8.224,0,0,0,0-9.5,5.135,5.135,0,0,0-4.126-1.774,4.978,4.978,0,0,0-4.01,1.8,8.09,8.09,0,0,0,0,9.417A4.977,4.977,0,0,0,2367.838,1120.823Z" transform="translate(-2154.241 -1083.916)"/><path class="b" d="M2370.088,1152.016c-1.086,0-1.666-.466-1.745-1.393l-.931-6.335q-.172-1.28,1.92-1.92a5.347,5.347,0,0,0,2.789-1.365,3.634,3.634,0,0,0,.815-2.528V1109.82c0-1.007.56-1.511,1.686-1.511h9.066c1.083,0,1.627.5,1.627,1.511v27.548q0,7.151-3.692,10.754T2370.088,1152.016Zm9.123-46.961a7.041,7.041,0,0,1-4.939-1.8,6.284,6.284,0,0,1,0-9.153,6.98,6.98,0,0,1,4.939-1.829,6.806,6.806,0,0,1,4.853,1.829,6.351,6.351,0,0,1,0,9.153A6.865,6.865,0,0,1,2379.211,1105.055Z" transform="translate(-2132.892 -1092.269)"/><path class="b" d="M2394.023,1129.831q-7.733,0-12.41-4.273a14.5,14.5,0,0,1-4.679-11.245,14.791,14.791,0,0,1,4.446-11.219q4.444-4.24,11.827-4.243,7.9,0,12.117,4.214t4.214,11.132v1.218c0,1.01-.58,1.511-1.743,1.511h-19.47q1.1,4.306,5.813,4.3a4.63,4.63,0,0,0,3.135-1.1,3.648,3.648,0,0,1,2.092-.874h8.14a1.525,1.525,0,0,1,1.248.465,1.255,1.255,0,0,1,.147,1.221,12.073,12.073,0,0,1-5.348,6.536A18.074,18.074,0,0,1,2394.023,1129.831Zm-5.639-18.481h10.52a4.917,4.917,0,0,0-1.714-3.168,5.3,5.3,0,0,0-3.517-1.191,5.435,5.435,0,0,0-3.517,1.191A4.794,4.794,0,0,0,2388.384,1111.35Z" transform="translate(-2120.791 -1083.916)"/></g></g></svg>